<?xml version="1.0" encoding="UTF-8"?>
<svg xmlns="http://www.w3.org/2000/svg" width="720" height="360" viewBox="0 0 720 360" fill="none">
  <rect width="720" height="360" fill="#111827"/>
  <text x="24" y="28" fill="#f8fafc" font-family="Inter, system-ui, sans-serif" font-size="14">Rounded rectangle per-side stroke fixture</text>

  <g transform="translate(24, 56)">
    <defs>
      <clipPath id="rr-per-side-0-0">
        <path d="M 94.4 0 C 94.4229 1.1951 94.4456 5.3373 94.5371 7.1705 C 94.6286 9.0037 94.7656 9.8535 94.9487 10.9992 C 95.1319 12.1449 95.3606 13.1114 95.6359 14.0448 C 95.9113 14.9782 96.2323 15.8116 96.601 16.5995 C 96.9698 17.3875 97.3842 18.1033 97.8483 18.7724 C 98.3124 19.4415 98.8225 20.0511 99.3857 20.6143 C 99.9489 21.1775 100.5585 21.6876 101.2276 22.1517 C 101.8967 22.6158 102.6125 23.0302 103.4005 23.399 C 104.1884 23.7677 105.0218 24.0887 105.9552 24.3641 C 106.8886 24.6394 107.8551 24.8681 109.0008 25.0513 C 110.1465 25.2344 110.9963 25.3714 112.8295 25.4629 C 114.6627 25.5544 118.8049 25.5771 120 25.6 L 120 54.4 C 118.8049 54.4229 114.6627 54.4456 112.8295 54.5371 C 110.9963 54.6286 110.1465 54.7656 109.0008 54.9487 C 107.8551 55.1319 106.8886 55.3606 105.9552 55.6359 C 105.0218 55.9113 104.1884 56.2323 103.4005 56.601 C 102.6125 56.9698 101.8967 57.3842 101.2276 57.8483 C 100.5585 58.3124 99.9489 58.8225 99.3857 59.3857 C 98.8225 59.9489 98.3124 60.5585 97.8483 61.2276 C 97.3842 61.8967 96.9698 62.6125 96.601 63.4005 C 96.2323 64.1884 95.9113 65.0218 95.6359 65.9552 C 95.3606 66.8886 95.1319 67.8551 94.9487 69.0008 C 94.7656 70.1465 94.6286 70.9963 94.5371 72.8295 C 94.4456 74.6627 94.4229 78.8049 94.4 80 L 25.6 80 C 25.5771 78.8049 25.5544 74.6627 25.4629 72.8295 C 25.3714 70.9963 25.2344 70.1465 25.0513 69.0008 C 24.8681 67.8551 24.6394 66.8886 24.3641 65.9552 C 24.0887 65.0218 23.7677 64.1884 23.399 63.4005 C 23.0302 62.6125 22.6158 61.8967 22.1517 61.2276 C 21.6876 60.5585 21.1775 59.9489 20.6143 59.3857 C 20.0511 58.8225 19.4415 58.3124 18.7724 57.8483 C 18.1033 57.3842 17.3875 56.9698 16.5995 56.601 C 15.8116 56.2323 14.9782 55.9113 14.0448 55.6359 C 13.1114 55.3606 12.1449 55.1319 10.9992 54.9487 C 9.8535 54.7656 9.0037 54.6286 7.1705 54.5371 C 5.3373 54.4456 1.1951 54.4229 0 54.4 L 0 25.6 C 1.1951 25.5771 5.3373 25.5544 7.1705 25.4629 C 9.0037 25.3714 9.8535 25.2344 10.9992 25.0513 C 12.1449 24.8681 13.1114 24.6394 14.0448 24.3641 C 14.9782 24.0887 15.8116 23.7677 16.5995 23.399 C 17.3875 23.0302 18.1033 22.6158 18.7724 22.1517 C 19.4415 21.6876 20.0511 21.1775 20.6143 20.6143 C 21.1775 20.0511 21.6876 19.4415 22.1517 18.7724 C 22.6158 18.1033 23.0302 17.3875 23.399 16.5995 C 23.7677 15.8116 24.0887 14.9782 24.3641 14.0448 C 24.6394 13.1114 24.8681 12.1449 25.0513 10.9992 C 25.2344 9.8535 25.3714 9.0037 25.4629 7.1705 C 25.5544 5.3373 25.5771 1.1951 25.6 0 Z"/>
      </clipPath>
    </defs>
    <text x="0" y="-10" fill="#cbd5e1" font-family="Inter, system-ui, sans-serif" font-size="12">top + left</text>
    <path d="M 94.4 0 C 94.4229 1.1951 94.4456 5.3373 94.5371 7.1705 C 94.6286 9.0037 94.7656 9.8535 94.9487 10.9992 C 95.1319 12.1449 95.3606 13.1114 95.6359 14.0448 C 95.9113 14.9782 96.2323 15.8116 96.601 16.5995 C 96.9698 17.3875 97.3842 18.1033 97.8483 18.7724 C 98.3124 19.4415 98.8225 20.0511 99.3857 20.6143 C 99.9489 21.1775 100.5585 21.6876 101.2276 22.1517 C 101.8967 22.6158 102.6125 23.0302 103.4005 23.399 C 104.1884 23.7677 105.0218 24.0887 105.9552 24.3641 C 106.8886 24.6394 107.8551 24.8681 109.0008 25.0513 C 110.1465 25.2344 110.9963 25.3714 112.8295 25.4629 C 114.6627 25.5544 118.8049 25.5771 120 25.6 L 120 54.4 C 118.8049 54.4229 114.6627 54.4456 112.8295 54.5371 C 110.9963 54.6286 110.1465 54.7656 109.0008 54.9487 C 107.8551 55.1319 106.8886 55.3606 105.9552 55.6359 C 105.0218 55.9113 104.1884 56.2323 103.4005 56.601 C 102.6125 56.9698 101.8967 57.3842 101.2276 57.8483 C 100.5585 58.3124 99.9489 58.8225 99.3857 59.3857 C 98.8225 59.9489 98.3124 60.5585 97.8483 61.2276 C 97.3842 61.8967 96.9698 62.6125 96.601 63.4005 C 96.2323 64.1884 95.9113 65.0218 95.6359 65.9552 C 95.3606 66.8886 95.1319 67.8551 94.9487 69.0008 C 94.7656 70.1465 94.6286 70.9963 94.5371 72.8295 C 94.4456 74.6627 94.4229 78.8049 94.4 80 L 25.6 80 C 25.5771 78.8049 25.5544 74.6627 25.4629 72.8295 C 25.3714 70.9963 25.2344 70.1465 25.0513 69.0008 C 24.8681 67.8551 24.6394 66.8886 24.3641 65.9552 C 24.0887 65.0218 23.7677 64.1884 23.399 63.4005 C 23.0302 62.6125 22.6158 61.8967 22.1517 61.2276 C 21.6876 60.5585 21.1775 59.9489 20.6143 59.3857 C 20.0511 58.8225 19.4415 58.3124 18.7724 57.8483 C 18.1033 57.3842 17.3875 56.9698 16.5995 56.601 C 15.8116 56.2323 14.9782 55.9113 14.0448 55.6359 C 13.1114 55.3606 12.1449 55.1319 10.9992 54.9487 C 9.8535 54.7656 9.0037 54.6286 7.1705 54.5371 C 5.3373 54.4456 1.1951 54.4229 0 54.4 L 0 25.6 C 1.1951 25.5771 5.3373 25.5544 7.1705 25.4629 C 9.0037 25.3714 9.8535 25.2344 10.9992 25.0513 C 12.1449 24.8681 13.1114 24.6394 14.0448 24.3641 C 14.9782 24.0887 15.8116 23.7677 16.5995 23.399 C 17.3875 23.0302 18.1033 22.6158 18.7724 22.1517 C 19.4415 21.6876 20.0511 21.1775 20.6143 20.6143 C 21.1775 20.0511 21.6876 19.4415 22.1517 18.7724 C 22.6158 18.1033 23.0302 17.3875 23.399 16.5995 C 23.7677 15.8116 24.0887 14.9782 24.3641 14.0448 C 24.6394 13.1114 24.8681 12.1449 25.0513 10.9992 C 25.2344 9.8535 25.3714 9.0037 25.4629 7.1705 C 25.5544 5.3373 25.5771 1.1951 25.6 0 Z" fill="#e53935"/>
    <path d="M 18.354825588245607 18.64073052821318 L 19.409702169228325 17.443055940791698 L 20.21091639266429 16.23316617529378 L 20.904447009405814 14.828525759026142 L 21.489811202549763 13.185281448003845 L 21.96102263983342 11.241773322178217 L 22.309441221933668 8.889924847976612 L 22.52556637723292 5.868411175524146 L 23.492365562065835 -2.1349185155385078 L 96.50763443788001 -2.1349185174760636 L 97.47443362276735 5.8684111755302 L 97.69055877806633 8.889924847976605 L 98.0389773601666 11.241773322178213 L 98.51018879745024 13.185281448003849 L 99.09555299059419 14.828525759026137 L 99.78908360733573 16.233166175293775 L 100.59029783077168 17.443055940791698 L 101.5070440946092 18.492955905390815 L 102.5569440592083 19.409702169228325 L 103.76683382470623 20.21091639266429 L 105.17147424097386 20.904447009405814 L 106.81471855199617 21.489811202549763 L 108.7582266778218 21.96102263983342 L 111.1100751520234 22.309441221933668 L 114.13158882447586 22.52556637723292 L 120.03858471555401 22.600248140332237 L 119.96141528067781 28.599751859667766 L 113.87800960476515 28.520205447212938 L 110.45389980186852 28.27345278378104 L 107.60789305275023 27.849717958070702 L 105.09573357824588 27.238297147563525 L 102.82951382406496 26.428505427419864 L 100.77373077326936 25.4110446721858 L 98.917929614643 24.180192067786443 L 97.26440340748991 22.7355965925101 L 95.81980793221356 21.082070385357003 L 94.5889553278142 19.226269226730643 L 93.57149457258014 17.170486175935046 L 92.76170285243649 14.904266421754116 L 92.1502820419293 12.392106947249788 L 91.72654721621896 9.54610019813149 L 91.47979455278681 6.121990395228776 L 92.29236556212 2.1349185174760636 L 27.707634437934168 2.1349185193067006 L 28.520205447212938 6.121990395234844 L 28.27345278378104 9.546100198131494 L 27.849717958070702 12.392106947249784 L 27.238297147563525 14.904266421754123 L 26.428505427419864 17.170486175935046 L 25.4110446721858 19.22626922673064 L 24.180192067786443 21.082070385357003 L 22.873726909655307 22.587821969687734 L 18.354825588245607 18.64073052821318 Z" fill="#ffffff" clip-path="url(#rr-per-side-0-0)"/>
    <path d="M 22.60024814033208 80.03858471742598 L 22.525566377232668 74.1315888244698 L 22.309441221933668 71.1100751520234 L 21.961022639833416 68.75822667782178 L 21.489811202549763 66.81471855199617 L 20.904447009405814 65.17147424097386 L 20.210916392664288 63.766833824706225 L 19.409702169228325 62.556944059208305 L 18.492955905390815 61.507044094609185 L 17.443055940791698 60.590297830771675 L 16.233166175293775 59.789083607335705 L 14.828525759026144 59.095552990594186 L 13.185281448003844 58.51018879745023 L 11.241773322178217 58.03897736016658 L 8.889924847976612 57.69055877806633 L 5.8684111755241455 57.47443362276708 L -2.134918515498425 56.507634437974765 L -2.1349185175161445 23.492365562160586 L 5.868411175530196 22.525566377232668 L 8.889924847976603 22.309441221933668 L 11.241773322178219 21.961022639833416 L 13.185281448003845 21.489811202549763 L 14.828525759026139 20.904447009405814 L 16.23316617529378 20.210916392664288 L 17.443055940791698 19.40970216922833 L 18.640730528213176 18.35482558824561 L 22.587821969687738 22.873726909655304 L 21.082070385357003 24.180192067786447 L 19.22626922673064 25.411044672185803 L 17.170486175935043 26.428505427419864 L 14.90426642175412 27.238297147563525 L 12.392106947249783 27.8497179580707 L 9.546100198131493 28.27345278378104 L 6.121990395228781 28.520205447213197 L 2.1349185175161445 27.707634437839417 L 2.134918519266618 52.29236556202523 L 6.121990395234845 51.479794552787055 L 9.546100198131494 51.72654721621896 L 12.392106947249784 52.150282041929295 L 14.904266421754125 52.76170285243648 L 17.170486175935046 53.571494572580136 L 19.226269226730643 54.5889553278142 L 21.082070385357003 55.819807932213564 L 22.7355965925101 57.264403407489894 L 24.18019206778645 58.917929614643 L 25.411044672185803 60.773730773269364 L 26.428505427419864 62.82951382406496 L 27.238297147563525 65.09573357824588 L 27.8497179580707 67.60789305275021 L 28.27345278378104 70.45389980186852 L 28.520205447213197 73.87800960477121 L 28.599751859667922 79.96141528257402 L 22.60024814033208 80.03858471742598 Z" fill="#ffffff" clip-path="url(#rr-per-side-0-0)"/>
  </g>

  <g transform="translate(192, 56)">
    <defs>
      <clipPath id="rr-per-side-1-0">
        <path d="M 94.4 0 C 94.4229 1.1951 94.4456 5.3373 94.5371 7.1705 C 94.6286 9.0037 94.7656 9.8535 94.9487 10.9992 C 95.1319 12.1449 95.3606 13.1114 95.6359 14.0448 C 95.9113 14.9782 96.2323 15.8116 96.601 16.5995 C 96.9698 17.3875 97.3842 18.1033 97.8483 18.7724 C 98.3124 19.4415 98.8225 20.0511 99.3857 20.6143 C 99.9489 21.1775 100.5585 21.6876 101.2276 22.1517 C 101.8967 22.6158 102.6125 23.0302 103.4005 23.399 C 104.1884 23.7677 105.0218 24.0887 105.9552 24.3641 C 106.8886 24.6394 107.8551 24.8681 109.0008 25.0513 C 110.1465 25.2344 110.9963 25.3714 112.8295 25.4629 C 114.6627 25.5544 118.8049 25.5771 120 25.6 L 120 54.4 C 118.8049 54.4229 114.6627 54.4456 112.8295 54.5371 C 110.9963 54.6286 110.1465 54.7656 109.0008 54.9487 C 107.8551 55.1319 106.8886 55.3606 105.9552 55.6359 C 105.0218 55.9113 104.1884 56.2323 103.4005 56.601 C 102.6125 56.9698 101.8967 57.3842 101.2276 57.8483 C 100.5585 58.3124 99.9489 58.8225 99.3857 59.3857 C 98.8225 59.9489 98.3124 60.5585 97.8483 61.2276 C 97.3842 61.8967 96.9698 62.6125 96.601 63.4005 C 96.2323 64.1884 95.9113 65.0218 95.6359 65.9552 C 95.3606 66.8886 95.1319 67.8551 94.9487 69.0008 C 94.7656 70.1465 94.6286 70.9963 94.5371 72.8295 C 94.4456 74.6627 94.4229 78.8049 94.4 80 L 25.6 80 C 25.5771 78.8049 25.5544 74.6627 25.4629 72.8295 C 25.3714 70.9963 25.2344 70.1465 25.0513 69.0008 C 24.8681 67.8551 24.6394 66.8886 24.3641 65.9552 C 24.0887 65.0218 23.7677 64.1884 23.399 63.4005 C 23.0302 62.6125 22.6158 61.8967 22.1517 61.2276 C 21.6876 60.5585 21.1775 59.9489 20.6143 59.3857 C 20.0511 58.8225 19.4415 58.3124 18.7724 57.8483 C 18.1033 57.3842 17.3875 56.9698 16.5995 56.601 C 15.8116 56.2323 14.9782 55.9113 14.0448 55.6359 C 13.1114 55.3606 12.1449 55.1319 10.9992 54.9487 C 9.8535 54.7656 9.0037 54.6286 7.1705 54.5371 C 5.3373 54.4456 1.1951 54.4229 0 54.4 L 0 25.6 C 1.1951 25.5771 5.3373 25.5544 7.1705 25.4629 C 9.0037 25.3714 9.8535 25.2344 10.9992 25.0513 C 12.1449 24.8681 13.1114 24.6394 14.0448 24.3641 C 14.9782 24.0887 15.8116 23.7677 16.5995 23.399 C 17.3875 23.0302 18.1033 22.6158 18.7724 22.1517 C 19.4415 21.6876 20.0511 21.1775 20.6143 20.6143 C 21.1775 20.0511 21.6876 19.4415 22.1517 18.7724 C 22.6158 18.1033 23.0302 17.3875 23.399 16.5995 C 23.7677 15.8116 24.0887 14.9782 24.3641 14.0448 C 24.6394 13.1114 24.8681 12.1449 25.0513 10.9992 C 25.2344 9.8535 25.3714 9.0037 25.4629 7.1705 C 25.5544 5.3373 25.5771 1.1951 25.6 0 Z"/>
      </clipPath>
    </defs>
    <text x="0" y="-10" fill="#cbd5e1" font-family="Inter, system-ui, sans-serif" font-size="12">bottom + left</text>
    <path d="M 94.4 0 C 94.4229 1.1951 94.4456 5.3373 94.5371 7.1705 C 94.6286 9.0037 94.7656 9.8535 94.9487 10.9992 C 95.1319 12.1449 95.3606 13.1114 95.6359 14.0448 C 95.9113 14.9782 96.2323 15.8116 96.601 16.5995 C 96.9698 17.3875 97.3842 18.1033 97.8483 18.7724 C 98.3124 19.4415 98.8225 20.0511 99.3857 20.6143 C 99.9489 21.1775 100.5585 21.6876 101.2276 22.1517 C 101.8967 22.6158 102.6125 23.0302 103.4005 23.399 C 104.1884 23.7677 105.0218 24.0887 105.9552 24.3641 C 106.8886 24.6394 107.8551 24.8681 109.0008 25.0513 C 110.1465 25.2344 110.9963 25.3714 112.8295 25.4629 C 114.6627 25.5544 118.8049 25.5771 120 25.6 L 120 54.4 C 118.8049 54.4229 114.6627 54.4456 112.8295 54.5371 C 110.9963 54.6286 110.1465 54.7656 109.0008 54.9487 C 107.8551 55.1319 106.8886 55.3606 105.9552 55.6359 C 105.0218 55.9113 104.1884 56.2323 103.4005 56.601 C 102.6125 56.9698 101.8967 57.3842 101.2276 57.8483 C 100.5585 58.3124 99.9489 58.8225 99.3857 59.3857 C 98.8225 59.9489 98.3124 60.5585 97.8483 61.2276 C 97.3842 61.8967 96.9698 62.6125 96.601 63.4005 C 96.2323 64.1884 95.9113 65.0218 95.6359 65.9552 C 95.3606 66.8886 95.1319 67.8551 94.9487 69.0008 C 94.7656 70.1465 94.6286 70.9963 94.5371 72.8295 C 94.4456 74.6627 94.4229 78.8049 94.4 80 L 25.6 80 C 25.5771 78.8049 25.5544 74.6627 25.4629 72.8295 C 25.3714 70.9963 25.2344 70.1465 25.0513 69.0008 C 24.8681 67.8551 24.6394 66.8886 24.3641 65.9552 C 24.0887 65.0218 23.7677 64.1884 23.399 63.4005 C 23.0302 62.6125 22.6158 61.8967 22.1517 61.2276 C 21.6876 60.5585 21.1775 59.9489 20.6143 59.3857 C 20.0511 58.8225 19.4415 58.3124 18.7724 57.8483 C 18.1033 57.3842 17.3875 56.9698 16.5995 56.601 C 15.8116 56.2323 14.9782 55.9113 14.0448 55.6359 C 13.1114 55.3606 12.1449 55.1319 10.9992 54.9487 C 9.8535 54.7656 9.0037 54.6286 7.1705 54.5371 C 5.3373 54.4456 1.1951 54.4229 0 54.4 L 0 25.6 C 1.1951 25.5771 5.3373 25.5544 7.1705 25.4629 C 9.0037 25.3714 9.8535 25.2344 10.9992 25.0513 C 12.1449 24.8681 13.1114 24.6394 14.0448 24.3641 C 14.9782 24.0887 15.8116 23.7677 16.5995 23.399 C 17.3875 23.0302 18.1033 22.6158 18.7724 22.1517 C 19.4415 21.6876 20.0511 21.1775 20.6143 20.6143 C 21.1775 20.0511 21.6876 19.4415 22.1517 18.7724 C 22.6158 18.1033 23.0302 17.3875 23.399 16.5995 C 23.7677 15.8116 24.0887 14.9782 24.3641 14.0448 C 24.6394 13.1114 24.8681 12.1449 25.0513 10.9992 C 25.2344 9.8535 25.3714 9.0037 25.4629 7.1705 C 25.5544 5.3373 25.5771 1.1951 25.6 0 Z" fill="#e53935"/>
    <path d="M 120.03858471742598 57.39975185966792 L 114.1315888244698 57.474433622767336 L 111.1100751520234 57.69055877806633 L 108.75822667782178 58.038977360166584 L 106.81471855199617 58.51018879745024 L 105.17147424097386 59.095552990594186 L 103.76683382470623 59.78908360733571 L 102.5569440592083 60.590297830771675 L 101.50704409460918 61.507044094609185 L 100.59029783077168 62.556944059208305 L 99.7890836073357 63.766833824706225 L 99.09555299059419 65.17147424097386 L 98.51018879745023 66.81471855199615 L 98.03897736016658 68.75822667782178 L 97.69055877806633 71.11007515202338 L 97.47443362276708 74.13158882447586 L 96.50763443793417 82.1349185155385 L 23.492365562119986 82.13491851747607 L 22.525566377232668 74.1315888244698 L 22.309441221933668 71.1100751520234 L 21.961022639833416 68.75822667782178 L 21.489811202549763 66.81471855199617 L 20.904447009405814 65.17147424097386 L 20.210916392664288 63.766833824706225 L 19.409702169228325 62.556944059208305 L 18.354825588245603 61.35926947178682 L 22.87372690965531 57.41217803031226 L 24.18019206778645 58.917929614643 L 25.411044672185803 60.773730773269364 L 26.428505427419864 62.82951382406496 L 27.238297147563525 65.09573357824588 L 27.8497179580707 67.60789305275021 L 28.27345278378104 70.45389980186852 L 28.520205447213197 73.87800960477121 L 27.707634437880017 77.86508148252393 L 92.29236556206584 77.86508148069329 L 91.47979455278706 73.87800960476515 L 91.72654721621896 70.4538998018685 L 92.15028204192929 67.60789305275021 L 92.76170285243647 65.09573357824587 L 93.57149457258014 62.829513824064954 L 94.5889553278142 60.773730773269364 L 95.81980793221356 58.917929614643 L 97.2644034074899 57.26440340748991 L 98.917929614643 55.81980793221355 L 100.77373077326936 54.588955327814205 L 102.82951382406496 53.571494572580136 L 105.09573357824588 52.76170285243647 L 107.60789305275021 52.1502820419293 L 110.45389980186852 51.72654721621896 L 113.87800960477121 51.4797945527868 L 119.96141528257402 51.400248140332074 L 120.03858471742598 57.39975185966792 Z" fill="#ffffff" clip-path="url(#rr-per-side-1-0)"/>
    <path d="M 18.640730528213187 61.6451744117544 L 17.443055940791698 60.590297830771675 L 16.233166175293775 59.789083607335705 L 14.828525759026144 59.095552990594186 L 13.185281448003844 58.51018879745023 L 11.241773322178217 58.03897736016658 L 8.889924847976612 57.69055877806633 L 5.8684111755241455 57.47443362276708 L -2.134918515498425 56.507634437974765 L -2.1349185175161445 23.492365562160586 L 5.868411175530196 22.525566377232668 L 8.889924847976603 22.309441221933668 L 11.241773322178219 21.961022639833416 L 13.185281448003845 21.489811202549763 L 14.828525759026139 20.904447009405814 L 16.23316617529378 20.210916392664288 L 17.443055940791698 19.40970216922833 L 18.49295590539081 18.492955905390815 L 19.409702169228325 17.443055940791698 L 20.21091639266429 16.23316617529378 L 20.904447009405814 14.828525759026142 L 21.489811202549763 13.185281448003845 L 21.96102263983342 11.241773322178217 L 22.309441221933668 8.889924847976612 L 22.52556637723292 5.868411175524146 L 22.600248140332237 -0.038584715554005444 L 28.599751859667766 0.03858471932219831 L 28.520205447212938 6.121990395234844 L 28.27345278378104 9.546100198131494 L 27.849717958070702 12.392106947249784 L 27.238297147563525 14.904266421754123 L 26.428505427419864 17.170486175935046 L 25.4110446721858 19.22626922673064 L 24.180192067786443 21.082070385357003 L 22.735596592510102 22.7355965925101 L 21.082070385357003 24.180192067786447 L 19.22626922673064 25.411044672185803 L 17.170486175935043 26.428505427419864 L 14.90426642175412 27.238297147563525 L 12.392106947249783 27.8497179580707 L 9.546100198131493 28.27345278378104 L 6.121990395228781 28.520205447213197 L 2.1349185175161445 27.707634437839417 L 2.134918519266618 52.29236556202523 L 6.121990395234845 51.479794552787055 L 9.546100198131494 51.72654721621896 L 12.392106947249784 52.150282041929295 L 14.904266421754125 52.76170285243648 L 17.170486175935046 53.571494572580136 L 19.226269226730643 54.5889553278142 L 21.082070385357003 55.819807932213564 L 22.587821969687727 57.12627309034468 L 18.640730528213187 61.6451744117544 Z" fill="#ffffff" clip-path="url(#rr-per-side-1-0)"/>
  </g>

  <g transform="translate(360, 56)">
    <defs>
      <clipPath id="rr-per-side-2-0">
        <path d="M 94.4 0 C 94.4229 1.1951 94.4456 5.3373 94.5371 7.1705 C 94.6286 9.0037 94.7656 9.8535 94.9487 10.9992 C 95.1319 12.1449 95.3606 13.1114 95.6359 14.0448 C 95.9113 14.9782 96.2323 15.8116 96.601 16.5995 C 96.9698 17.3875 97.3842 18.1033 97.8483 18.7724 C 98.3124 19.4415 98.8225 20.0511 99.3857 20.6143 C 99.9489 21.1775 100.5585 21.6876 101.2276 22.1517 C 101.8967 22.6158 102.6125 23.0302 103.4005 23.399 C 104.1884 23.7677 105.0218 24.0887 105.9552 24.3641 C 106.8886 24.6394 107.8551 24.8681 109.0008 25.0513 C 110.1465 25.2344 110.9963 25.3714 112.8295 25.4629 C 114.6627 25.5544 118.8049 25.5771 120 25.6 L 120 54.4 C 118.8049 54.4229 114.6627 54.4456 112.8295 54.5371 C 110.9963 54.6286 110.1465 54.7656 109.0008 54.9487 C 107.8551 55.1319 106.8886 55.3606 105.9552 55.6359 C 105.0218 55.9113 104.1884 56.2323 103.4005 56.601 C 102.6125 56.9698 101.8967 57.3842 101.2276 57.8483 C 100.5585 58.3124 99.9489 58.8225 99.3857 59.3857 C 98.8225 59.9489 98.3124 60.5585 97.8483 61.2276 C 97.3842 61.8967 96.9698 62.6125 96.601 63.4005 C 96.2323 64.1884 95.9113 65.0218 95.6359 65.9552 C 95.3606 66.8886 95.1319 67.8551 94.9487 69.0008 C 94.7656 70.1465 94.6286 70.9963 94.5371 72.8295 C 94.4456 74.6627 94.4229 78.8049 94.4 80 L 25.6 80 C 25.5771 78.8049 25.5544 74.6627 25.4629 72.8295 C 25.3714 70.9963 25.2344 70.1465 25.0513 69.0008 C 24.8681 67.8551 24.6394 66.8886 24.3641 65.9552 C 24.0887 65.0218 23.7677 64.1884 23.399 63.4005 C 23.0302 62.6125 22.6158 61.8967 22.1517 61.2276 C 21.6876 60.5585 21.1775 59.9489 20.6143 59.3857 C 20.0511 58.8225 19.4415 58.3124 18.7724 57.8483 C 18.1033 57.3842 17.3875 56.9698 16.5995 56.601 C 15.8116 56.2323 14.9782 55.9113 14.0448 55.6359 C 13.1114 55.3606 12.1449 55.1319 10.9992 54.9487 C 9.8535 54.7656 9.0037 54.6286 7.1705 54.5371 C 5.3373 54.4456 1.1951 54.4229 0 54.4 L 0 25.6 C 1.1951 25.5771 5.3373 25.5544 7.1705 25.4629 C 9.0037 25.3714 9.8535 25.2344 10.9992 25.0513 C 12.1449 24.8681 13.1114 24.6394 14.0448 24.3641 C 14.9782 24.0887 15.8116 23.7677 16.5995 23.399 C 17.3875 23.0302 18.1033 22.6158 18.7724 22.1517 C 19.4415 21.6876 20.0511 21.1775 20.6143 20.6143 C 21.1775 20.0511 21.6876 19.4415 22.1517 18.7724 C 22.6158 18.1033 23.0302 17.3875 23.399 16.5995 C 23.7677 15.8116 24.0887 14.9782 24.3641 14.0448 C 24.6394 13.1114 24.8681 12.1449 25.0513 10.9992 C 25.2344 9.8535 25.3714 9.0037 25.4629 7.1705 C 25.5544 5.3373 25.5771 1.1951 25.6 0 Z"/>
      </clipPath>
    </defs>
    <text x="0" y="-10" fill="#cbd5e1" font-family="Inter, system-ui, sans-serif" font-size="12">left only</text>
    <path d="M 94.4 0 C 94.4229 1.1951 94.4456 5.3373 94.5371 7.1705 C 94.6286 9.0037 94.7656 9.8535 94.9487 10.9992 C 95.1319 12.1449 95.3606 13.1114 95.6359 14.0448 C 95.9113 14.9782 96.2323 15.8116 96.601 16.5995 C 96.9698 17.3875 97.3842 18.1033 97.8483 18.7724 C 98.3124 19.4415 98.8225 20.0511 99.3857 20.6143 C 99.9489 21.1775 100.5585 21.6876 101.2276 22.1517 C 101.8967 22.6158 102.6125 23.0302 103.4005 23.399 C 104.1884 23.7677 105.0218 24.0887 105.9552 24.3641 C 106.8886 24.6394 107.8551 24.8681 109.0008 25.0513 C 110.1465 25.2344 110.9963 25.3714 112.8295 25.4629 C 114.6627 25.5544 118.8049 25.5771 120 25.6 L 120 54.4 C 118.8049 54.4229 114.6627 54.4456 112.8295 54.5371 C 110.9963 54.6286 110.1465 54.7656 109.0008 54.9487 C 107.8551 55.1319 106.8886 55.3606 105.9552 55.6359 C 105.0218 55.9113 104.1884 56.2323 103.4005 56.601 C 102.6125 56.9698 101.8967 57.3842 101.2276 57.8483 C 100.5585 58.3124 99.9489 58.8225 99.3857 59.3857 C 98.8225 59.9489 98.3124 60.5585 97.8483 61.2276 C 97.3842 61.8967 96.9698 62.6125 96.601 63.4005 C 96.2323 64.1884 95.9113 65.0218 95.6359 65.9552 C 95.3606 66.8886 95.1319 67.8551 94.9487 69.0008 C 94.7656 70.1465 94.6286 70.9963 94.5371 72.8295 C 94.4456 74.6627 94.4229 78.8049 94.4 80 L 25.6 80 C 25.5771 78.8049 25.5544 74.6627 25.4629 72.8295 C 25.3714 70.9963 25.2344 70.1465 25.0513 69.0008 C 24.8681 67.8551 24.6394 66.8886 24.3641 65.9552 C 24.0887 65.0218 23.7677 64.1884 23.399 63.4005 C 23.0302 62.6125 22.6158 61.8967 22.1517 61.2276 C 21.6876 60.5585 21.1775 59.9489 20.6143 59.3857 C 20.0511 58.8225 19.4415 58.3124 18.7724 57.8483 C 18.1033 57.3842 17.3875 56.9698 16.5995 56.601 C 15.8116 56.2323 14.9782 55.9113 14.0448 55.6359 C 13.1114 55.3606 12.1449 55.1319 10.9992 54.9487 C 9.8535 54.7656 9.0037 54.6286 7.1705 54.5371 C 5.3373 54.4456 1.1951 54.4229 0 54.4 L 0 25.6 C 1.1951 25.5771 5.3373 25.5544 7.1705 25.4629 C 9.0037 25.3714 9.8535 25.2344 10.9992 25.0513 C 12.1449 24.8681 13.1114 24.6394 14.0448 24.3641 C 14.9782 24.0887 15.8116 23.7677 16.5995 23.399 C 17.3875 23.0302 18.1033 22.6158 18.7724 22.1517 C 19.4415 21.6876 20.0511 21.1775 20.6143 20.6143 C 21.1775 20.0511 21.6876 19.4415 22.1517 18.7724 C 22.6158 18.1033 23.0302 17.3875 23.399 16.5995 C 23.7677 15.8116 24.0887 14.9782 24.3641 14.0448 C 24.6394 13.1114 24.8681 12.1449 25.0513 10.9992 C 25.2344 9.8535 25.3714 9.0037 25.4629 7.1705 C 25.5544 5.3373 25.5771 1.1951 25.6 0 Z" fill="#e53935"/>
    <path d="M 22.60024814033208 80.03858471742598 L 22.525566377232668 74.1315888244698 L 22.309441221933668 71.1100751520234 L 21.961022639833416 68.75822667782178 L 21.489811202549763 66.81471855199617 L 20.904447009405814 65.17147424097386 L 20.210916392664288 63.766833824706225 L 19.409702169228325 62.556944059208305 L 18.492955905390815 61.507044094609185 L 17.443055940791698 60.590297830771675 L 16.233166175293775 59.789083607335705 L 14.828525759026144 59.095552990594186 L 13.185281448003844 58.51018879745023 L 11.241773322178217 58.03897736016658 L 8.889924847976612 57.69055877806633 L 5.8684111755241455 57.47443362276708 L -2.134918515498425 56.507634437974765 L -2.1349185175161445 23.492365562160586 L 5.868411175530196 22.525566377232668 L 8.889924847976603 22.309441221933668 L 11.241773322178219 21.961022639833416 L 13.185281448003845 21.489811202549763 L 14.828525759026139 20.904447009405814 L 16.23316617529378 20.210916392664288 L 17.443055940791698 19.40970216922833 L 18.49295590539081 18.492955905390815 L 19.409702169228325 17.443055940791698 L 20.21091639266429 16.23316617529378 L 20.904447009405814 14.828525759026142 L 21.489811202549763 13.185281448003845 L 21.96102263983342 11.241773322178217 L 22.309441221933668 8.889924847976612 L 22.52556637723292 5.868411175524146 L 22.600248140332237 -0.038584715554005444 L 28.599751859667766 0.03858471932219831 L 28.520205447212938 6.121990395234844 L 28.27345278378104 9.546100198131494 L 27.849717958070702 12.392106947249784 L 27.238297147563525 14.904266421754123 L 26.428505427419864 17.170486175935046 L 25.4110446721858 19.22626922673064 L 24.180192067786443 21.082070385357003 L 22.735596592510102 22.7355965925101 L 21.082070385357003 24.180192067786447 L 19.22626922673064 25.411044672185803 L 17.170486175935043 26.428505427419864 L 14.90426642175412 27.238297147563525 L 12.392106947249783 27.8497179580707 L 9.546100198131493 28.27345278378104 L 6.121990395228781 28.520205447213197 L 2.1349185175161445 27.707634437839417 L 2.134918519266618 52.29236556202523 L 6.121990395234845 51.479794552787055 L 9.546100198131494 51.72654721621896 L 12.392106947249784 52.150282041929295 L 14.904266421754125 52.76170285243648 L 17.170486175935046 53.571494572580136 L 19.226269226730643 54.5889553278142 L 21.082070385357003 55.819807932213564 L 22.7355965925101 57.264403407489894 L 24.18019206778645 58.917929614643 L 25.411044672185803 60.773730773269364 L 26.428505427419864 62.82951382406496 L 27.238297147563525 65.09573357824588 L 27.8497179580707 67.60789305275021 L 28.27345278378104 70.45389980186852 L 28.520205447213197 73.87800960477121 L 28.599751859667922 79.96141528257402 L 22.60024814033208 80.03858471742598 Z" fill="#ffffff" clip-path="url(#rr-per-side-2-0)"/>
  </g>

  <g transform="translate(528, 56)">
    <defs>
      <clipPath id="rr-per-side-3-0">
        <path d="M 94.4 0 C 94.4229 1.1951 94.4456 5.3373 94.5371 7.1705 C 94.6286 9.0037 94.7656 9.8535 94.9487 10.9992 C 95.1319 12.1449 95.3606 13.1114 95.6359 14.0448 C 95.9113 14.9782 96.2323 15.8116 96.601 16.5995 C 96.9698 17.3875 97.3842 18.1033 97.8483 18.7724 C 98.3124 19.4415 98.8225 20.0511 99.3857 20.6143 C 99.9489 21.1775 100.5585 21.6876 101.2276 22.1517 C 101.8967 22.6158 102.6125 23.0302 103.4005 23.399 C 104.1884 23.7677 105.0218 24.0887 105.9552 24.3641 C 106.8886 24.6394 107.8551 24.8681 109.0008 25.0513 C 110.1465 25.2344 110.9963 25.3714 112.8295 25.4629 C 114.6627 25.5544 118.8049 25.5771 120 25.6 L 120 54.4 C 118.8049 54.4229 114.6627 54.4456 112.8295 54.5371 C 110.9963 54.6286 110.1465 54.7656 109.0008 54.9487 C 107.8551 55.1319 106.8886 55.3606 105.9552 55.6359 C 105.0218 55.9113 104.1884 56.2323 103.4005 56.601 C 102.6125 56.9698 101.8967 57.3842 101.2276 57.8483 C 100.5585 58.3124 99.9489 58.8225 99.3857 59.3857 C 98.8225 59.9489 98.3124 60.5585 97.8483 61.2276 C 97.3842 61.8967 96.9698 62.6125 96.601 63.4005 C 96.2323 64.1884 95.9113 65.0218 95.6359 65.9552 C 95.3606 66.8886 95.1319 67.8551 94.9487 69.0008 C 94.7656 70.1465 94.6286 70.9963 94.5371 72.8295 C 94.4456 74.6627 94.4229 78.8049 94.4 80 L 25.6 80 C 25.5771 78.8049 25.5544 74.6627 25.4629 72.8295 C 25.3714 70.9963 25.2344 70.1465 25.0513 69.0008 C 24.8681 67.8551 24.6394 66.8886 24.3641 65.9552 C 24.0887 65.0218 23.7677 64.1884 23.399 63.4005 C 23.0302 62.6125 22.6158 61.8967 22.1517 61.2276 C 21.6876 60.5585 21.1775 59.9489 20.6143 59.3857 C 20.0511 58.8225 19.4415 58.3124 18.7724 57.8483 C 18.1033 57.3842 17.3875 56.9698 16.5995 56.601 C 15.8116 56.2323 14.9782 55.9113 14.0448 55.6359 C 13.1114 55.3606 12.1449 55.1319 10.9992 54.9487 C 9.8535 54.7656 9.0037 54.6286 7.1705 54.5371 C 5.3373 54.4456 1.1951 54.4229 0 54.4 L 0 25.6 C 1.1951 25.5771 5.3373 25.5544 7.1705 25.4629 C 9.0037 25.3714 9.8535 25.2344 10.9992 25.0513 C 12.1449 24.8681 13.1114 24.6394 14.0448 24.3641 C 14.9782 24.0887 15.8116 23.7677 16.5995 23.399 C 17.3875 23.0302 18.1033 22.6158 18.7724 22.1517 C 19.4415 21.6876 20.0511 21.1775 20.6143 20.6143 C 21.1775 20.0511 21.6876 19.4415 22.1517 18.7724 C 22.6158 18.1033 23.0302 17.3875 23.399 16.5995 C 23.7677 15.8116 24.0887 14.9782 24.3641 14.0448 C 24.6394 13.1114 24.8681 12.1449 25.0513 10.9992 C 25.2344 9.8535 25.3714 9.0037 25.4629 7.1705 C 25.5544 5.3373 25.5771 1.1951 25.6 0 Z"/>
      </clipPath>
    </defs>
    <text x="0" y="-10" fill="#cbd5e1" font-family="Inter, system-ui, sans-serif" font-size="12">right only</text>
    <path d="M 94.4 0 C 94.4229 1.1951 94.4456 5.3373 94.5371 7.1705 C 94.6286 9.0037 94.7656 9.8535 94.9487 10.9992 C 95.1319 12.1449 95.3606 13.1114 95.6359 14.0448 C 95.9113 14.9782 96.2323 15.8116 96.601 16.5995 C 96.9698 17.3875 97.3842 18.1033 97.8483 18.7724 C 98.3124 19.4415 98.8225 20.0511 99.3857 20.6143 C 99.9489 21.1775 100.5585 21.6876 101.2276 22.1517 C 101.8967 22.6158 102.6125 23.0302 103.4005 23.399 C 104.1884 23.7677 105.0218 24.0887 105.9552 24.3641 C 106.8886 24.6394 107.8551 24.8681 109.0008 25.0513 C 110.1465 25.2344 110.9963 25.3714 112.8295 25.4629 C 114.6627 25.5544 118.8049 25.5771 120 25.6 L 120 54.4 C 118.8049 54.4229 114.6627 54.4456 112.8295 54.5371 C 110.9963 54.6286 110.1465 54.7656 109.0008 54.9487 C 107.8551 55.1319 106.8886 55.3606 105.9552 55.6359 C 105.0218 55.9113 104.1884 56.2323 103.4005 56.601 C 102.6125 56.9698 101.8967 57.3842 101.2276 57.8483 C 100.5585 58.3124 99.9489 58.8225 99.3857 59.3857 C 98.8225 59.9489 98.3124 60.5585 97.8483 61.2276 C 97.3842 61.8967 96.9698 62.6125 96.601 63.4005 C 96.2323 64.1884 95.9113 65.0218 95.6359 65.9552 C 95.3606 66.8886 95.1319 67.8551 94.9487 69.0008 C 94.7656 70.1465 94.6286 70.9963 94.5371 72.8295 C 94.4456 74.6627 94.4229 78.8049 94.4 80 L 25.6 80 C 25.5771 78.8049 25.5544 74.6627 25.4629 72.8295 C 25.3714 70.9963 25.2344 70.1465 25.0513 69.0008 C 24.8681 67.8551 24.6394 66.8886 24.3641 65.9552 C 24.0887 65.0218 23.7677 64.1884 23.399 63.4005 C 23.0302 62.6125 22.6158 61.8967 22.1517 61.2276 C 21.6876 60.5585 21.1775 59.9489 20.6143 59.3857 C 20.0511 58.8225 19.4415 58.3124 18.7724 57.8483 C 18.1033 57.3842 17.3875 56.9698 16.5995 56.601 C 15.8116 56.2323 14.9782 55.9113 14.0448 55.6359 C 13.1114 55.3606 12.1449 55.1319 10.9992 54.9487 C 9.8535 54.7656 9.0037 54.6286 7.1705 54.5371 C 5.3373 54.4456 1.1951 54.4229 0 54.4 L 0 25.6 C 1.1951 25.5771 5.3373 25.5544 7.1705 25.4629 C 9.0037 25.3714 9.8535 25.2344 10.9992 25.0513 C 12.1449 24.8681 13.1114 24.6394 14.0448 24.3641 C 14.9782 24.0887 15.8116 23.7677 16.5995 23.399 C 17.3875 23.0302 18.1033 22.6158 18.7724 22.1517 C 19.4415 21.6876 20.0511 21.1775 20.6143 20.6143 C 21.1775 20.0511 21.6876 19.4415 22.1517 18.7724 C 22.6158 18.1033 23.0302 17.3875 23.399 16.5995 C 23.7677 15.8116 24.0887 14.9782 24.3641 14.0448 C 24.6394 13.1114 24.8681 12.1449 25.0513 10.9992 C 25.2344 9.8535 25.3714 9.0037 25.4629 7.1705 C 25.5544 5.3373 25.5771 1.1951 25.6 0 Z" fill="#e53935"/>
    <path d="M 97.39975185966793 -0.038584717425979784 L 97.47443362276735 5.8684111755302 L 97.69055877806633 8.889924847976605 L 98.0389773601666 11.241773322178213 L 98.51018879745024 13.185281448003849 L 99.09555299059419 14.828525759026137 L 99.78908360733573 16.233166175293775 L 100.59029783077168 17.443055940791698 L 101.5070440946092 18.492955905390815 L 102.5569440592083 19.409702169228325 L 103.76683382470623 20.21091639266429 L 105.17147424097386 20.904447009405814 L 106.81471855199617 21.489811202549763 L 108.7582266778218 21.96102263983342 L 111.1100751520234 22.309441221933668 L 114.13158882447586 22.52556637723292 L 122.13491851549843 23.492365562025235 L 122.13491851751614 56.507634437839414 L 114.1315888244698 57.474433622767336 L 111.1100751520234 57.69055877806633 L 108.75822667782178 58.038977360166584 L 106.81471855199617 58.51018879745024 L 105.17147424097386 59.095552990594186 L 103.76683382470623 59.78908360733571 L 102.5569440592083 60.590297830771675 L 101.50704409460918 61.507044094609185 L 100.59029783077168 62.556944059208305 L 99.7890836073357 63.766833824706225 L 99.09555299059419 65.17147424097386 L 98.51018879745023 66.81471855199615 L 98.03897736016658 68.75822667782178 L 97.69055877806633 71.11007515202338 L 97.47443362276708 74.13158882447586 L 97.39975185966777 80.038584715554 L 91.40024814033224 79.9614152806778 L 91.47979455278706 73.87800960476515 L 91.72654721621896 70.4538998018685 L 92.15028204192929 67.60789305275021 L 92.76170285243647 65.09573357824587 L 93.57149457258014 62.829513824064954 L 94.5889553278142 60.773730773269364 L 95.81980793221356 58.917929614643 L 97.2644034074899 57.26440340748991 L 98.917929614643 55.81980793221355 L 100.77373077326936 54.588955327814205 L 102.82951382406496 53.571494572580136 L 105.09573357824588 52.76170285243647 L 107.60789305275021 52.1502820419293 L 110.45389980186852 51.72654721621896 L 113.87800960477121 51.4797945527868 L 117.86508148248386 52.29236556216058 L 117.8650814807334 27.707634437974768 L 113.87800960476515 28.520205447212938 L 110.45389980186852 28.27345278378104 L 107.60789305275023 27.849717958070702 L 105.09573357824588 27.238297147563525 L 102.82951382406496 26.428505427419864 L 100.77373077326936 25.4110446721858 L 98.917929614643 24.180192067786443 L 97.26440340748991 22.7355965925101 L 95.81980793221356 21.082070385357003 L 94.5889553278142 19.226269226730643 L 93.57149457258014 17.170486175935046 L 92.76170285243649 14.904266421754116 L 92.1502820419293 12.392106947249788 L 91.72654721621896 9.54610019813149 L 91.47979455278681 6.121990395228776 L 91.40024814033208 0.038584717425979784 L 97.39975185966793 -0.038584717425979784 Z" fill="#ffffff" clip-path="url(#rr-per-side-3-0)"/>
  </g>

  <g transform="translate(24, 184)">
    <defs>
      <clipPath id="rr-per-side-0-1">
        <path d="M 94.4 0 C 94.4229 1.1951 94.4456 5.3373 94.5371 7.1705 C 94.6286 9.0037 94.7656 9.8535 94.9487 10.9992 C 95.1319 12.1449 95.3606 13.1114 95.6359 14.0448 C 95.9113 14.9782 96.2323 15.8116 96.601 16.5995 C 96.9698 17.3875 97.3842 18.1033 97.8483 18.7724 C 98.3124 19.4415 98.8225 20.0511 99.3857 20.6143 C 99.9489 21.1775 100.5585 21.6876 101.2276 22.1517 C 101.8967 22.6158 102.6125 23.0302 103.4005 23.399 C 104.1884 23.7677 105.0218 24.0887 105.9552 24.3641 C 106.8886 24.6394 107.8551 24.8681 109.0008 25.0513 C 110.1465 25.2344 110.9963 25.3714 112.8295 25.4629 C 114.6627 25.5544 118.8049 25.5771 120 25.6 L 120 54.4 C 118.8049 54.4229 114.6627 54.4456 112.8295 54.5371 C 110.9963 54.6286 110.1465 54.7656 109.0008 54.9487 C 107.8551 55.1319 106.8886 55.3606 105.9552 55.6359 C 105.0218 55.9113 104.1884 56.2323 103.4005 56.601 C 102.6125 56.9698 101.8967 57.3842 101.2276 57.8483 C 100.5585 58.3124 99.9489 58.8225 99.3857 59.3857 C 98.8225 59.9489 98.3124 60.5585 97.8483 61.2276 C 97.3842 61.8967 96.9698 62.6125 96.601 63.4005 C 96.2323 64.1884 95.9113 65.0218 95.6359 65.9552 C 95.3606 66.8886 95.1319 67.8551 94.9487 69.0008 C 94.7656 70.1465 94.6286 70.9963 94.5371 72.8295 C 94.4456 74.6627 94.4229 78.8049 94.4 80 L 25.6 80 C 25.5771 78.8049 25.5544 74.6627 25.4629 72.8295 C 25.3714 70.9963 25.2344 70.1465 25.0513 69.0008 C 24.8681 67.8551 24.6394 66.8886 24.3641 65.9552 C 24.0887 65.0218 23.7677 64.1884 23.399 63.4005 C 23.0302 62.6125 22.6158 61.8967 22.1517 61.2276 C 21.6876 60.5585 21.1775 59.9489 20.6143 59.3857 C 20.0511 58.8225 19.4415 58.3124 18.7724 57.8483 C 18.1033 57.3842 17.3875 56.9698 16.5995 56.601 C 15.8116 56.2323 14.9782 55.9113 14.0448 55.6359 C 13.1114 55.3606 12.1449 55.1319 10.9992 54.9487 C 9.8535 54.7656 9.0037 54.6286 7.1705 54.5371 C 5.3373 54.4456 1.1951 54.4229 0 54.4 L 0 25.6 C 1.1951 25.5771 5.3373 25.5544 7.1705 25.4629 C 9.0037 25.3714 9.8535 25.2344 10.9992 25.0513 C 12.1449 24.8681 13.1114 24.6394 14.0448 24.3641 C 14.9782 24.0887 15.8116 23.7677 16.5995 23.399 C 17.3875 23.0302 18.1033 22.6158 18.7724 22.1517 C 19.4415 21.6876 20.0511 21.1775 20.6143 20.6143 C 21.1775 20.0511 21.6876 19.4415 22.1517 18.7724 C 22.6158 18.1033 23.0302 17.3875 23.399 16.5995 C 23.7677 15.8116 24.0887 14.9782 24.3641 14.0448 C 24.6394 13.1114 24.8681 12.1449 25.0513 10.9992 C 25.2344 9.8535 25.3714 9.0037 25.4629 7.1705 C 25.5544 5.3373 25.5771 1.1951 25.6 0 Z"/>
      </clipPath>
    </defs>
    <text x="0" y="-10" fill="#cbd5e1" font-family="Inter, system-ui, sans-serif" font-size="12">top + right</text>
    <path d="M 94.4 0 C 94.4229 1.1951 94.4456 5.3373 94.5371 7.1705 C 94.6286 9.0037 94.7656 9.8535 94.9487 10.9992 C 95.1319 12.1449 95.3606 13.1114 95.6359 14.0448 C 95.9113 14.9782 96.2323 15.8116 96.601 16.5995 C 96.9698 17.3875 97.3842 18.1033 97.8483 18.7724 C 98.3124 19.4415 98.8225 20.0511 99.3857 20.6143 C 99.9489 21.1775 100.5585 21.6876 101.2276 22.1517 C 101.8967 22.6158 102.6125 23.0302 103.4005 23.399 C 104.1884 23.7677 105.0218 24.0887 105.9552 24.3641 C 106.8886 24.6394 107.8551 24.8681 109.0008 25.0513 C 110.1465 25.2344 110.9963 25.3714 112.8295 25.4629 C 114.6627 25.5544 118.8049 25.5771 120 25.6 L 120 54.4 C 118.8049 54.4229 114.6627 54.4456 112.8295 54.5371 C 110.9963 54.6286 110.1465 54.7656 109.0008 54.9487 C 107.8551 55.1319 106.8886 55.3606 105.9552 55.6359 C 105.0218 55.9113 104.1884 56.2323 103.4005 56.601 C 102.6125 56.9698 101.8967 57.3842 101.2276 57.8483 C 100.5585 58.3124 99.9489 58.8225 99.3857 59.3857 C 98.8225 59.9489 98.3124 60.5585 97.8483 61.2276 C 97.3842 61.8967 96.9698 62.6125 96.601 63.4005 C 96.2323 64.1884 95.9113 65.0218 95.6359 65.9552 C 95.3606 66.8886 95.1319 67.8551 94.9487 69.0008 C 94.7656 70.1465 94.6286 70.9963 94.5371 72.8295 C 94.4456 74.6627 94.4229 78.8049 94.4 80 L 25.6 80 C 25.5771 78.8049 25.5544 74.6627 25.4629 72.8295 C 25.3714 70.9963 25.2344 70.1465 25.0513 69.0008 C 24.8681 67.8551 24.6394 66.8886 24.3641 65.9552 C 24.0887 65.0218 23.7677 64.1884 23.399 63.4005 C 23.0302 62.6125 22.6158 61.8967 22.1517 61.2276 C 21.6876 60.5585 21.1775 59.9489 20.6143 59.3857 C 20.0511 58.8225 19.4415 58.3124 18.7724 57.8483 C 18.1033 57.3842 17.3875 56.9698 16.5995 56.601 C 15.8116 56.2323 14.9782 55.9113 14.0448 55.6359 C 13.1114 55.3606 12.1449 55.1319 10.9992 54.9487 C 9.8535 54.7656 9.0037 54.6286 7.1705 54.5371 C 5.3373 54.4456 1.1951 54.4229 0 54.4 L 0 25.6 C 1.1951 25.5771 5.3373 25.5544 7.1705 25.4629 C 9.0037 25.3714 9.8535 25.2344 10.9992 25.0513 C 12.1449 24.8681 13.1114 24.6394 14.0448 24.3641 C 14.9782 24.0887 15.8116 23.7677 16.5995 23.399 C 17.3875 23.0302 18.1033 22.6158 18.7724 22.1517 C 19.4415 21.6876 20.0511 21.1775 20.6143 20.6143 C 21.1775 20.0511 21.6876 19.4415 22.1517 18.7724 C 22.6158 18.1033 23.0302 17.3875 23.399 16.5995 C 23.7677 15.8116 24.0887 14.9782 24.3641 14.0448 C 24.6394 13.1114 24.8681 12.1449 25.0513 10.9992 C 25.2344 9.8535 25.3714 9.0037 25.4629 7.1705 C 25.5544 5.3373 25.5771 1.1951 25.6 0 Z" fill="#e53935"/>
    <path d="M -0.03858471742597623 22.60024814033208 L 5.868411175530196 22.525566377232668 L 8.889924847976603 22.309441221933668 L 11.241773322178219 21.961022639833416 L 13.185281448003845 21.489811202549763 L 14.828525759026139 20.904447009405814 L 16.23316617529378 20.210916392664288 L 17.443055940791698 19.40970216922833 L 18.49295590539081 18.492955905390815 L 19.409702169228325 17.443055940791698 L 20.21091639266429 16.23316617529378 L 20.904447009405814 14.828525759026142 L 21.489811202549763 13.185281448003845 L 21.96102263983342 11.241773322178217 L 22.309441221933668 8.889924847976612 L 22.52556637723292 5.868411175524146 L 23.492365562065835 -2.1349185155385078 L 96.50763443788001 -2.1349185174760636 L 97.47443362276735 5.8684111755302 L 97.69055877806633 8.889924847976605 L 98.0389773601666 11.241773322178213 L 98.51018879745024 13.185281448003849 L 99.09555299059419 14.828525759026137 L 99.78908360733573 16.233166175293775 L 100.59029783077168 17.443055940791698 L 101.6451744117544 18.640730528213172 L 97.12627309034471 22.58782196968774 L 95.81980793221356 21.082070385357003 L 94.5889553278142 19.226269226730643 L 93.57149457258014 17.170486175935046 L 92.76170285243649 14.904266421754116 L 92.1502820419293 12.392106947249788 L 91.72654721621896 9.54610019813149 L 91.47979455278681 6.121990395228776 L 92.29236556212 2.1349185174760636 L 27.707634437934168 2.1349185193067006 L 28.520205447212938 6.121990395234844 L 28.27345278378104 9.546100198131494 L 27.849717958070702 12.392106947249784 L 27.238297147563525 14.904266421754123 L 26.428505427419864 17.170486175935046 L 25.4110446721858 19.22626922673064 L 24.180192067786443 21.082070385357003 L 22.735596592510102 22.7355965925101 L 21.082070385357003 24.180192067786447 L 19.22626922673064 25.411044672185803 L 17.170486175935043 26.428505427419864 L 14.90426642175412 27.238297147563525 L 12.392106947249783 27.8497179580707 L 9.546100198131493 28.27345278378104 L 6.121990395228781 28.520205447213197 L 0.03858471742597623 28.599751859667922 L -0.03858471742597623 22.60024814033208 Z" fill="#ffffff" clip-path="url(#rr-per-side-0-1)"/>
    <path d="M 101.35926947178683 18.35482558824561 L 102.5569440592083 19.409702169228325 L 103.76683382470623 20.21091639266429 L 105.17147424097386 20.904447009405814 L 106.81471855199617 21.489811202549763 L 108.7582266778218 21.96102263983342 L 111.1100751520234 22.309441221933668 L 114.13158882447586 22.52556637723292 L 122.13491851549843 23.492365562025235 L 122.13491851751614 56.507634437839414 L 114.1315888244698 57.474433622767336 L 111.1100751520234 57.69055877806633 L 108.75822667782178 58.038977360166584 L 106.81471855199617 58.51018879745024 L 105.17147424097386 59.095552990594186 L 103.76683382470623 59.78908360733571 L 102.5569440592083 60.590297830771675 L 101.50704409460918 61.507044094609185 L 100.59029783077168 62.556944059208305 L 99.7890836073357 63.766833824706225 L 99.09555299059419 65.17147424097386 L 98.51018879745023 66.81471855199615 L 98.03897736016658 68.75822667782178 L 97.69055877806633 71.11007515202338 L 97.47443362276708 74.13158882447586 L 97.39975185966777 80.038584715554 L 91.40024814033224 79.9614152806778 L 91.47979455278706 73.87800960476515 L 91.72654721621896 70.4538998018685 L 92.15028204192929 67.60789305275021 L 92.76170285243647 65.09573357824587 L 93.57149457258014 62.829513824064954 L 94.5889553278142 60.773730773269364 L 95.81980793221356 58.917929614643 L 97.2644034074899 57.26440340748991 L 98.917929614643 55.81980793221355 L 100.77373077326936 54.588955327814205 L 102.82951382406496 53.571494572580136 L 105.09573357824588 52.76170285243647 L 107.60789305275021 52.1502820419293 L 110.45389980186852 51.72654721621896 L 113.87800960477121 51.4797945527868 L 117.86508148248386 52.29236556216058 L 117.8650814807334 27.707634437974768 L 113.87800960476515 28.520205447212938 L 110.45389980186852 28.27345278378104 L 107.60789305275023 27.849717958070702 L 105.09573357824588 27.238297147563525 L 102.82951382406496 26.428505427419864 L 100.77373077326936 25.4110446721858 L 98.917929614643 24.180192067786443 L 97.41217803031228 22.873726909655304 L 101.35926947178683 18.35482558824561 Z" fill="#ffffff" clip-path="url(#rr-per-side-0-1)"/>
  </g>

  <g transform="translate(192, 184)">
    <defs>
      <clipPath id="rr-per-side-1-1">
        <path d="M 94.4 0 C 94.4229 1.1951 94.4456 5.3373 94.5371 7.1705 C 94.6286 9.0037 94.7656 9.8535 94.9487 10.9992 C 95.1319 12.1449 95.3606 13.1114 95.6359 14.0448 C 95.9113 14.9782 96.2323 15.8116 96.601 16.5995 C 96.9698 17.3875 97.3842 18.1033 97.8483 18.7724 C 98.3124 19.4415 98.8225 20.0511 99.3857 20.6143 C 99.9489 21.1775 100.5585 21.6876 101.2276 22.1517 C 101.8967 22.6158 102.6125 23.0302 103.4005 23.399 C 104.1884 23.7677 105.0218 24.0887 105.9552 24.3641 C 106.8886 24.6394 107.8551 24.8681 109.0008 25.0513 C 110.1465 25.2344 110.9963 25.3714 112.8295 25.4629 C 114.6627 25.5544 118.8049 25.5771 120 25.6 L 120 54.4 C 118.8049 54.4229 114.6627 54.4456 112.8295 54.5371 C 110.9963 54.6286 110.1465 54.7656 109.0008 54.9487 C 107.8551 55.1319 106.8886 55.3606 105.9552 55.6359 C 105.0218 55.9113 104.1884 56.2323 103.4005 56.601 C 102.6125 56.9698 101.8967 57.3842 101.2276 57.8483 C 100.5585 58.3124 99.9489 58.8225 99.3857 59.3857 C 98.8225 59.9489 98.3124 60.5585 97.8483 61.2276 C 97.3842 61.8967 96.9698 62.6125 96.601 63.4005 C 96.2323 64.1884 95.9113 65.0218 95.6359 65.9552 C 95.3606 66.8886 95.1319 67.8551 94.9487 69.0008 C 94.7656 70.1465 94.6286 70.9963 94.5371 72.8295 C 94.4456 74.6627 94.4229 78.8049 94.4 80 L 25.6 80 C 25.5771 78.8049 25.5544 74.6627 25.4629 72.8295 C 25.3714 70.9963 25.2344 70.1465 25.0513 69.0008 C 24.8681 67.8551 24.6394 66.8886 24.3641 65.9552 C 24.0887 65.0218 23.7677 64.1884 23.399 63.4005 C 23.0302 62.6125 22.6158 61.8967 22.1517 61.2276 C 21.6876 60.5585 21.1775 59.9489 20.6143 59.3857 C 20.0511 58.8225 19.4415 58.3124 18.7724 57.8483 C 18.1033 57.3842 17.3875 56.9698 16.5995 56.601 C 15.8116 56.2323 14.9782 55.9113 14.0448 55.6359 C 13.1114 55.3606 12.1449 55.1319 10.9992 54.9487 C 9.8535 54.7656 9.0037 54.6286 7.1705 54.5371 C 5.3373 54.4456 1.1951 54.4229 0 54.4 L 0 25.6 C 1.1951 25.5771 5.3373 25.5544 7.1705 25.4629 C 9.0037 25.3714 9.8535 25.2344 10.9992 25.0513 C 12.1449 24.8681 13.1114 24.6394 14.0448 24.3641 C 14.9782 24.0887 15.8116 23.7677 16.5995 23.399 C 17.3875 23.0302 18.1033 22.6158 18.7724 22.1517 C 19.4415 21.6876 20.0511 21.1775 20.6143 20.6143 C 21.1775 20.0511 21.6876 19.4415 22.1517 18.7724 C 22.6158 18.1033 23.0302 17.3875 23.399 16.5995 C 23.7677 15.8116 24.0887 14.9782 24.3641 14.0448 C 24.6394 13.1114 24.8681 12.1449 25.0513 10.9992 C 25.2344 9.8535 25.3714 9.0037 25.4629 7.1705 C 25.5544 5.3373 25.5771 1.1951 25.6 0 Z"/>
      </clipPath>
    </defs>
    <text x="0" y="-10" fill="#cbd5e1" font-family="Inter, system-ui, sans-serif" font-size="12">bottom + right</text>
    <path d="M 94.4 0 C 94.4229 1.1951 94.4456 5.3373 94.5371 7.1705 C 94.6286 9.0037 94.7656 9.8535 94.9487 10.9992 C 95.1319 12.1449 95.3606 13.1114 95.6359 14.0448 C 95.9113 14.9782 96.2323 15.8116 96.601 16.5995 C 96.9698 17.3875 97.3842 18.1033 97.8483 18.7724 C 98.3124 19.4415 98.8225 20.0511 99.3857 20.6143 C 99.9489 21.1775 100.5585 21.6876 101.2276 22.1517 C 101.8967 22.6158 102.6125 23.0302 103.4005 23.399 C 104.1884 23.7677 105.0218 24.0887 105.9552 24.3641 C 106.8886 24.6394 107.8551 24.8681 109.0008 25.0513 C 110.1465 25.2344 110.9963 25.3714 112.8295 25.4629 C 114.6627 25.5544 118.8049 25.5771 120 25.6 L 120 54.4 C 118.8049 54.4229 114.6627 54.4456 112.8295 54.5371 C 110.9963 54.6286 110.1465 54.7656 109.0008 54.9487 C 107.8551 55.1319 106.8886 55.3606 105.9552 55.6359 C 105.0218 55.9113 104.1884 56.2323 103.4005 56.601 C 102.6125 56.9698 101.8967 57.3842 101.2276 57.8483 C 100.5585 58.3124 99.9489 58.8225 99.3857 59.3857 C 98.8225 59.9489 98.3124 60.5585 97.8483 61.2276 C 97.3842 61.8967 96.9698 62.6125 96.601 63.4005 C 96.2323 64.1884 95.9113 65.0218 95.6359 65.9552 C 95.3606 66.8886 95.1319 67.8551 94.9487 69.0008 C 94.7656 70.1465 94.6286 70.9963 94.5371 72.8295 C 94.4456 74.6627 94.4229 78.8049 94.4 80 L 25.6 80 C 25.5771 78.8049 25.5544 74.6627 25.4629 72.8295 C 25.3714 70.9963 25.2344 70.1465 25.0513 69.0008 C 24.8681 67.8551 24.6394 66.8886 24.3641 65.9552 C 24.0887 65.0218 23.7677 64.1884 23.399 63.4005 C 23.0302 62.6125 22.6158 61.8967 22.1517 61.2276 C 21.6876 60.5585 21.1775 59.9489 20.6143 59.3857 C 20.0511 58.8225 19.4415 58.3124 18.7724 57.8483 C 18.1033 57.3842 17.3875 56.9698 16.5995 56.601 C 15.8116 56.2323 14.9782 55.9113 14.0448 55.6359 C 13.1114 55.3606 12.1449 55.1319 10.9992 54.9487 C 9.8535 54.7656 9.0037 54.6286 7.1705 54.5371 C 5.3373 54.4456 1.1951 54.4229 0 54.4 L 0 25.6 C 1.1951 25.5771 5.3373 25.5544 7.1705 25.4629 C 9.0037 25.3714 9.8535 25.2344 10.9992 25.0513 C 12.1449 24.8681 13.1114 24.6394 14.0448 24.3641 C 14.9782 24.0887 15.8116 23.7677 16.5995 23.399 C 17.3875 23.0302 18.1033 22.6158 18.7724 22.1517 C 19.4415 21.6876 20.0511 21.1775 20.6143 20.6143 C 21.1775 20.0511 21.6876 19.4415 22.1517 18.7724 C 22.6158 18.1033 23.0302 17.3875 23.399 16.5995 C 23.7677 15.8116 24.0887 14.9782 24.3641 14.0448 C 24.6394 13.1114 24.8681 12.1449 25.0513 10.9992 C 25.2344 9.8535 25.3714 9.0037 25.4629 7.1705 C 25.5544 5.3373 25.5771 1.1951 25.6 0 Z" fill="#e53935"/>
    <path d="M 97.39975185966793 -0.038584717425979784 L 97.47443362276735 5.8684111755302 L 97.69055877806633 8.889924847976605 L 98.0389773601666 11.241773322178213 L 98.51018879745024 13.185281448003849 L 99.09555299059419 14.828525759026137 L 99.78908360733573 16.233166175293775 L 100.59029783077168 17.443055940791698 L 101.5070440946092 18.492955905390815 L 102.5569440592083 19.409702169228325 L 103.76683382470623 20.21091639266429 L 105.17147424097386 20.904447009405814 L 106.81471855199617 21.489811202549763 L 108.7582266778218 21.96102263983342 L 111.1100751520234 22.309441221933668 L 114.13158882447586 22.52556637723292 L 122.13491851549843 23.492365562025235 L 122.13491851751614 56.507634437839414 L 114.1315888244698 57.474433622767336 L 111.1100751520234 57.69055877806633 L 108.75822667782178 58.038977360166584 L 106.81471855199617 58.51018879745024 L 105.17147424097386 59.095552990594186 L 103.76683382470623 59.78908360733571 L 102.5569440592083 60.590297830771675 L 101.35926947178682 61.6451744117544 L 97.41217803031226 57.1262730903447 L 98.917929614643 55.81980793221355 L 100.77373077326936 54.588955327814205 L 102.82951382406496 53.571494572580136 L 105.09573357824588 52.76170285243647 L 107.60789305275021 52.1502820419293 L 110.45389980186852 51.72654721621896 L 113.87800960477121 51.4797945527868 L 117.86508148248386 52.29236556216058 L 117.8650814807334 27.707634437974768 L 113.87800960476515 28.520205447212938 L 110.45389980186852 28.27345278378104 L 107.60789305275023 27.849717958070702 L 105.09573357824588 27.238297147563525 L 102.82951382406496 26.428505427419864 L 100.77373077326936 25.4110446721858 L 98.917929614643 24.180192067786443 L 97.26440340748991 22.7355965925101 L 95.81980793221356 21.082070385357003 L 94.5889553278142 19.226269226730643 L 93.57149457258014 17.170486175935046 L 92.76170285243649 14.904266421754116 L 92.1502820419293 12.392106947249788 L 91.72654721621896 9.54610019813149 L 91.47979455278681 6.121990395228776 L 91.40024814033208 0.038584717425979784 L 97.39975185966793 -0.038584717425979784 Z" fill="#ffffff" clip-path="url(#rr-per-side-1-1)"/>
    <path d="M 101.6451744117544 61.35926947178682 L 100.59029783077168 62.556944059208305 L 99.7890836073357 63.766833824706225 L 99.09555299059419 65.17147424097386 L 98.51018879745023 66.81471855199615 L 98.03897736016658 68.75822667782178 L 97.69055877806633 71.11007515202338 L 97.47443362276708 74.13158882447586 L 96.50763443793417 82.1349185155385 L 23.492365562119986 82.13491851747607 L 22.525566377232668 74.1315888244698 L 22.309441221933668 71.1100751520234 L 21.961022639833416 68.75822667782178 L 21.489811202549763 66.81471855199617 L 20.904447009405814 65.17147424097386 L 20.210916392664288 63.766833824706225 L 19.409702169228325 62.556944059208305 L 18.492955905390815 61.507044094609185 L 17.443055940791698 60.590297830771675 L 16.233166175293775 59.789083607335705 L 14.828525759026144 59.095552990594186 L 13.185281448003844 58.51018879745023 L 11.241773322178217 58.03897736016658 L 8.889924847976612 57.69055877806633 L 5.8684111755241455 57.47443362276708 L -0.03858471555400366 57.39975185966777 L 0.03858471932219653 51.40024814033223 L 6.121990395234845 51.479794552787055 L 9.546100198131494 51.72654721621896 L 12.392106947249784 52.150282041929295 L 14.904266421754125 52.76170285243648 L 17.170486175935046 53.571494572580136 L 19.226269226730643 54.5889553278142 L 21.082070385357003 55.819807932213564 L 22.7355965925101 57.264403407489894 L 24.18019206778645 58.917929614643 L 25.411044672185803 60.773730773269364 L 26.428505427419864 62.82951382406496 L 27.238297147563525 65.09573357824588 L 27.8497179580707 67.60789305275021 L 28.27345278378104 70.45389980186852 L 28.520205447213197 73.87800960477121 L 27.707634437880017 77.86508148252393 L 92.29236556206584 77.86508148069329 L 91.47979455278706 73.87800960476515 L 91.72654721621896 70.4538998018685 L 92.15028204192929 67.60789305275021 L 92.76170285243647 65.09573357824587 L 93.57149457258014 62.829513824064954 L 94.5889553278142 60.773730773269364 L 95.81980793221356 58.917929614643 L 97.12627309034468 57.412178030312276 L 101.6451744117544 61.35926947178682 Z" fill="#ffffff" clip-path="url(#rr-per-side-1-1)"/>
  </g>

  <g transform="translate(360, 184)">
    <defs>
      <clipPath id="rr-per-side-2-1">
        <path d="M 94.4 0 C 94.4229 1.1951 94.4456 5.3373 94.5371 7.1705 C 94.6286 9.0037 94.7656 9.8535 94.9487 10.9992 C 95.1319 12.1449 95.3606 13.1114 95.6359 14.0448 C 95.9113 14.9782 96.2323 15.8116 96.601 16.5995 C 96.9698 17.3875 97.3842 18.1033 97.8483 18.7724 C 98.3124 19.4415 98.8225 20.0511 99.3857 20.6143 C 99.9489 21.1775 100.5585 21.6876 101.2276 22.1517 C 101.8967 22.6158 102.6125 23.0302 103.4005 23.399 C 104.1884 23.7677 105.0218 24.0887 105.9552 24.3641 C 106.8886 24.6394 107.8551 24.8681 109.0008 25.0513 C 110.1465 25.2344 110.9963 25.3714 112.8295 25.4629 C 114.6627 25.5544 118.8049 25.5771 120 25.6 L 120 54.4 C 118.8049 54.4229 114.6627 54.4456 112.8295 54.5371 C 110.9963 54.6286 110.1465 54.7656 109.0008 54.9487 C 107.8551 55.1319 106.8886 55.3606 105.9552 55.6359 C 105.0218 55.9113 104.1884 56.2323 103.4005 56.601 C 102.6125 56.9698 101.8967 57.3842 101.2276 57.8483 C 100.5585 58.3124 99.9489 58.8225 99.3857 59.3857 C 98.8225 59.9489 98.3124 60.5585 97.8483 61.2276 C 97.3842 61.8967 96.9698 62.6125 96.601 63.4005 C 96.2323 64.1884 95.9113 65.0218 95.6359 65.9552 C 95.3606 66.8886 95.1319 67.8551 94.9487 69.0008 C 94.7656 70.1465 94.6286 70.9963 94.5371 72.8295 C 94.4456 74.6627 94.4229 78.8049 94.4 80 L 25.6 80 C 25.5771 78.8049 25.5544 74.6627 25.4629 72.8295 C 25.3714 70.9963 25.2344 70.1465 25.0513 69.0008 C 24.8681 67.8551 24.6394 66.8886 24.3641 65.9552 C 24.0887 65.0218 23.7677 64.1884 23.399 63.4005 C 23.0302 62.6125 22.6158 61.8967 22.1517 61.2276 C 21.6876 60.5585 21.1775 59.9489 20.6143 59.3857 C 20.0511 58.8225 19.4415 58.3124 18.7724 57.8483 C 18.1033 57.3842 17.3875 56.9698 16.5995 56.601 C 15.8116 56.2323 14.9782 55.9113 14.0448 55.6359 C 13.1114 55.3606 12.1449 55.1319 10.9992 54.9487 C 9.8535 54.7656 9.0037 54.6286 7.1705 54.5371 C 5.3373 54.4456 1.1951 54.4229 0 54.4 L 0 25.6 C 1.1951 25.5771 5.3373 25.5544 7.1705 25.4629 C 9.0037 25.3714 9.8535 25.2344 10.9992 25.0513 C 12.1449 24.8681 13.1114 24.6394 14.0448 24.3641 C 14.9782 24.0887 15.8116 23.7677 16.5995 23.399 C 17.3875 23.0302 18.1033 22.6158 18.7724 22.1517 C 19.4415 21.6876 20.0511 21.1775 20.6143 20.6143 C 21.1775 20.0511 21.6876 19.4415 22.1517 18.7724 C 22.6158 18.1033 23.0302 17.3875 23.399 16.5995 C 23.7677 15.8116 24.0887 14.9782 24.3641 14.0448 C 24.6394 13.1114 24.8681 12.1449 25.0513 10.9992 C 25.2344 9.8535 25.3714 9.0037 25.4629 7.1705 C 25.5544 5.3373 25.5771 1.1951 25.6 0 Z"/>
      </clipPath>
    </defs>
    <text x="0" y="-10" fill="#cbd5e1" font-family="Inter, system-ui, sans-serif" font-size="12">full stroke</text>
    <path d="M 94.4 0 C 94.4229 1.1951 94.4456 5.3373 94.5371 7.1705 C 94.6286 9.0037 94.7656 9.8535 94.9487 10.9992 C 95.1319 12.1449 95.3606 13.1114 95.6359 14.0448 C 95.9113 14.9782 96.2323 15.8116 96.601 16.5995 C 96.9698 17.3875 97.3842 18.1033 97.8483 18.7724 C 98.3124 19.4415 98.8225 20.0511 99.3857 20.6143 C 99.9489 21.1775 100.5585 21.6876 101.2276 22.1517 C 101.8967 22.6158 102.6125 23.0302 103.4005 23.399 C 104.1884 23.7677 105.0218 24.0887 105.9552 24.3641 C 106.8886 24.6394 107.8551 24.8681 109.0008 25.0513 C 110.1465 25.2344 110.9963 25.3714 112.8295 25.4629 C 114.6627 25.5544 118.8049 25.5771 120 25.6 L 120 54.4 C 118.8049 54.4229 114.6627 54.4456 112.8295 54.5371 C 110.9963 54.6286 110.1465 54.7656 109.0008 54.9487 C 107.8551 55.1319 106.8886 55.3606 105.9552 55.6359 C 105.0218 55.9113 104.1884 56.2323 103.4005 56.601 C 102.6125 56.9698 101.8967 57.3842 101.2276 57.8483 C 100.5585 58.3124 99.9489 58.8225 99.3857 59.3857 C 98.8225 59.9489 98.3124 60.5585 97.8483 61.2276 C 97.3842 61.8967 96.9698 62.6125 96.601 63.4005 C 96.2323 64.1884 95.9113 65.0218 95.6359 65.9552 C 95.3606 66.8886 95.1319 67.8551 94.9487 69.0008 C 94.7656 70.1465 94.6286 70.9963 94.5371 72.8295 C 94.4456 74.6627 94.4229 78.8049 94.4 80 L 25.6 80 C 25.5771 78.8049 25.5544 74.6627 25.4629 72.8295 C 25.3714 70.9963 25.2344 70.1465 25.0513 69.0008 C 24.8681 67.8551 24.6394 66.8886 24.3641 65.9552 C 24.0887 65.0218 23.7677 64.1884 23.399 63.4005 C 23.0302 62.6125 22.6158 61.8967 22.1517 61.2276 C 21.6876 60.5585 21.1775 59.9489 20.6143 59.3857 C 20.0511 58.8225 19.4415 58.3124 18.7724 57.8483 C 18.1033 57.3842 17.3875 56.9698 16.5995 56.601 C 15.8116 56.2323 14.9782 55.9113 14.0448 55.6359 C 13.1114 55.3606 12.1449 55.1319 10.9992 54.9487 C 9.8535 54.7656 9.0037 54.6286 7.1705 54.5371 C 5.3373 54.4456 1.1951 54.4229 0 54.4 L 0 25.6 C 1.1951 25.5771 5.3373 25.5544 7.1705 25.4629 C 9.0037 25.3714 9.8535 25.2344 10.9992 25.0513 C 12.1449 24.8681 13.1114 24.6394 14.0448 24.3641 C 14.9782 24.0887 15.8116 23.7677 16.5995 23.399 C 17.3875 23.0302 18.1033 22.6158 18.7724 22.1517 C 19.4415 21.6876 20.0511 21.1775 20.6143 20.6143 C 21.1775 20.0511 21.6876 19.4415 22.1517 18.7724 C 22.6158 18.1033 23.0302 17.3875 23.399 16.5995 C 23.7677 15.8116 24.0887 14.9782 24.3641 14.0448 C 24.6394 13.1114 24.8681 12.1449 25.0513 10.9992 C 25.2344 9.8535 25.3714 9.0037 25.4629 7.1705 C 25.5544 5.3373 25.5771 1.1951 25.6 0 Z" fill="#e53935"/>
    <path d="M 92.6 -3 C 92.6271 -1.5808 92.6542 3.3381 92.7628 5.515 C 92.8714 7.6919 93.0341 8.7011 93.2516 10.0616 C 93.4691 11.4221 93.7407 12.5698 94.0677 13.6782 C 94.3947 14.7866 94.7759 15.7763 95.2137 16.712 C 95.6516 17.6476 96.1437 18.4976 96.6949 19.2922 C 97.246 20.0868 97.8517 20.8106 98.5205 21.4795 C 99.1894 22.1483 99.9132 22.754 100.7078 23.3051 C 101.5024 23.8563 102.3524 24.3484 103.288 24.7863 C 104.2237 25.2241 105.2134 25.6053 106.3218 25.9323 C 107.4302 26.2593 108.5779 26.5309 109.9384 26.7484 C 111.2989 26.9659 112.3081 27.1286 114.485 27.2372 C 116.6619 27.3458 121.5808 27.3729 123 27.4 L 123 52.6 C 121.5808 52.6271 116.6619 52.6542 114.485 52.7628 C 112.3081 52.8714 111.2989 53.0341 109.9384 53.2516 C 108.5779 53.4691 107.4302 53.7407 106.3218 54.0677 C 105.2134 54.3947 104.2237 54.7759 103.288 55.2137 C 102.3524 55.6516 101.5024 56.1437 100.7078 56.6949 C 99.9132 57.246 99.1894 57.8517 98.5205 58.5205 C 97.8517 59.1894 97.246 59.9132 96.6949 60.7078 C 96.1437 61.5024 95.6516 62.3524 95.2137 63.288 C 94.7759 64.2237 94.3947 65.2134 94.0677 66.3218 C 93.7407 67.4302 93.4691 68.5779 93.2516 69.9384 C 93.0341 71.2989 92.8714 72.3081 92.7628 74.485 C 92.6542 76.6619 92.6271 81.5808 92.6 83 L 27.4 83 C 27.3729 81.5808 27.3458 76.6619 27.2372 74.485 C 27.1286 72.3081 26.9659 71.2989 26.7484 69.9384 C 26.5309 68.5779 26.2593 67.4302 25.9323 66.3218 C 25.6053 65.2134 25.2241 64.2237 24.7863 63.288 C 24.3484 62.3524 23.8563 61.5024 23.3051 60.7078 C 22.754 59.9132 22.1483 59.1894 21.4795 58.5205 C 20.8106 57.8517 20.0868 57.246 19.2922 56.6949 C 18.4976 56.1437 17.6476 55.6516 16.712 55.2137 C 15.7763 54.7759 14.7866 54.3947 13.6782 54.0677 C 12.5698 53.7407 11.4221 53.4691 10.0616 53.2516 C 8.7011 53.0341 7.6919 52.8714 5.515 52.7628 C 3.3381 52.6542 -1.5808 52.6271 -3 52.6 L -3 27.4 C -1.5808 27.3729 3.3381 27.3458 5.515 27.2372 C 7.6919 27.1286 8.7011 26.9659 10.0616 26.7484 C 11.4221 26.5309 12.5698 26.2593 13.6782 25.9323 C 14.7866 25.6053 15.7763 25.2241 16.712 24.7863 C 17.6476 24.3484 18.4976 23.8563 19.2922 23.3051 C 20.0868 22.754 20.8106 22.1483 21.4795 21.4795 C 22.1483 20.8106 22.754 20.0868 23.3051 19.2922 C 23.8563 18.4976 24.3484 17.6476 24.7863 16.712 C 25.2241 15.7763 25.6053 14.7866 25.9323 13.6782 C 26.2593 12.5698 26.5309 11.4221 26.7484 10.0616 C 26.9659 8.7011 27.1286 7.6919 27.2372 5.515 C 27.3458 3.3381 27.3729 -1.5808 27.4 -3 Z M 96.2 3 C 96.2186 3.971 96.2371 7.3366 96.3114 8.8261 C 96.3857 10.3155 96.497 11.006 96.6458 11.9369 C 96.7946 12.8678 96.9805 13.653 97.2042 14.4114 C 97.428 15.1698 97.6887 15.8469 97.9883 16.4871 C 98.2879 17.1273 98.6247 17.7089 99.0018 18.2526 C 99.3789 18.7962 99.7933 19.2915 100.2509 19.7491 C 100.7085 20.2067 101.2038 20.6211 101.7474 20.9982 C 102.2911 21.3753 102.8727 21.7121 103.5129 22.0117 C 104.1531 22.3113 104.8302 22.572 105.5886 22.7958 C 106.347 23.0195 107.1322 23.2054 108.0631 23.3542 C 108.994 23.503 109.6845 23.6143 111.1739 23.6886 C 112.6634 23.7629 116.029 23.7814 117 23.8 L 117 56.2 C 116.029 56.2186 112.6634 56.2371 111.1739 56.3114 C 109.6845 56.3857 108.994 56.497 108.0631 56.6458 C 107.1322 56.7946 106.347 56.9805 105.5886 57.2042 C 104.8302 57.428 104.1531 57.6887 103.5129 57.9883 C 102.8727 58.2879 102.2911 58.6247 101.7474 59.0018 C 101.2038 59.3789 100.7085 59.7933 100.2509 60.2509 C 99.7933 60.7085 99.3789 61.2038 99.0018 61.7474 C 98.6247 62.2911 98.2879 62.8727 97.9883 63.5129 C 97.6887 64.1531 97.428 64.8302 97.2042 65.5886 C 96.9805 66.347 96.7946 67.1322 96.6458 68.0631 C 96.497 68.994 96.3857 69.6845 96.3114 71.1739 C 96.2371 72.6634 96.2186 76.029 96.2 77 L 23.8 77 C 23.7814 76.029 23.7629 72.6634 23.6886 71.1739 C 23.6143 69.6845 23.503 68.994 23.3542 68.0631 C 23.2054 67.1322 23.0195 66.347 22.7958 65.5886 C 22.572 64.8302 22.3113 64.1531 22.0117 63.5129 C 21.7121 62.8727 21.3753 62.2911 20.9982 61.7474 C 20.6211 61.2038 20.2067 60.7085 19.7491 60.2509 C 19.2915 59.7933 18.7962 59.3789 18.2526 59.0018 C 17.7089 58.6247 17.1273 58.2879 16.4871 57.9883 C 15.8469 57.6887 15.1698 57.428 14.4114 57.2042 C 13.653 56.9805 12.8678 56.7946 11.9369 56.6458 C 11.006 56.497 10.3155 56.3857 8.8261 56.3114 C 7.3366 56.2371 3.971 56.2186 3 56.2 L 3 23.8 C 3.971 23.7814 7.3366 23.7629 8.8261 23.6886 C 10.3155 23.6143 11.006 23.503 11.9369 23.3542 C 12.8678 23.2054 13.653 23.0195 14.4114 22.7958 C 15.1698 22.572 15.8469 22.3113 16.4871 22.0117 C 17.1273 21.7121 17.7089 21.3753 18.2526 20.9982 C 18.7962 20.6211 19.2915 20.2067 19.7491 19.7491 C 20.2067 19.2915 20.6211 18.7962 20.9982 18.2526 C 21.3753 17.7089 21.7121 17.1273 22.0117 16.4871 C 22.3113 15.8469 22.572 15.1698 22.7958 14.4114 C 23.0195 13.653 23.2054 12.8678 23.3542 11.9369 C 23.503 11.006 23.6143 10.3155 23.6886 8.8261 C 23.7629 7.3366 23.7814 3.971 23.8 3 Z" fill="#ffffff" fill-rule="evenodd"/>
  </g>
</svg>
