<?xml version="1.0" encoding="UTF-8"?>
<svg xmlns="http://www.w3.org/2000/svg" width="696" height="420" viewBox="0 0 696 420">
  <rect width="100%" height="100%" fill="#111827"/>
  <text x="16" y="28" fill="#f8fafc" font-family="Inter, system-ui, sans-serif" font-size="14">Corner smoothing geometry — 300×300, r=80, smoothing=0.6, white stroke 20px on same path</text>
  <text x="16" y="48" fill="#94a3b8" font-family="monospace" font-size="11">Left: legacy cubic+arc (flat tabletop controls) · Right: superellipse canvas path (gradual tangent taper)</text>
  
  <g transform="translate(16, 72)">
    <text x="0" y="-12" fill="#e2e8f0" font-family="monospace" font-size="12">Piecewise cubic + arc</text>
    <text x="0" y="4" fill="#94a3b8" font-family="monospace" font-size="10">tangentY=-101.7 · transition=216.1 · peak κ=0.1691</text>
    <path d="M 172 0 c 43.9214 0 65.8821 0 82.0623 7.6138 a 80 80 0 0 1 38.3238 38.3238 c 7.6138 16.1802 7.6138 38.1409 7.6138 82.0623 L 300 172 c 0 43.9214 0 65.8821 -7.6138 82.0623 a 80 80 0 0 1 -38.3238 38.3238 c -16.1802 7.6138 -38.1409 7.6138 -82.0623 7.6138 L 128 300 c -43.9214 0 -65.8821 0 -82.0623 -7.6138 a 80 80 0 0 1 -38.3238 -38.3238 c -7.6138 -16.1802 -7.6138 -38.1409 -7.6138 -82.0623 L 0 128 c 0 -43.9214 0 -65.8821 7.6138 -82.0623 a 80 80 0 0 1 38.3238 -38.3238 c 16.1802 -7.6138 38.1409 -7.6138 82.0623 -7.6138 Z" fill="#9e9e9e"/>
    <path d="M 172 0 c 43.9214 0 65.8821 0 82.0623 7.6138 a 80 80 0 0 1 38.3238 38.3238 c 7.6138 16.1802 7.6138 38.1409 7.6138 82.0623 L 300 172 c 0 43.9214 0 65.8821 -7.6138 82.0623 a 80 80 0 0 1 -38.3238 38.3238 c -16.1802 7.6138 -38.1409 7.6138 -82.0623 7.6138 L 128 300 c -43.9214 0 -65.8821 0 -82.0623 -7.6138 a 80 80 0 0 1 -38.3238 -38.3238 c -7.6138 -16.1802 -7.6138 -38.1409 -7.6138 -82.0623 L 0 128 c 0 -43.9214 0 -65.8821 7.6138 -82.0623 a 80 80 0 0 1 38.3238 -38.3238 c 16.1802 -7.6138 38.1409 -7.6138 82.0623 -7.6138 Z" fill="none" stroke="#ffffff" stroke-width="20" stroke-linejoin="round"/>
    <path d="M 172 0 c 43.9214 0 65.8821 0 82.0623 7.6138 a 80 80 0 0 1 38.3238 38.3238 c 7.6138 16.1802 7.6138 38.1409 7.6138 82.0623 L 300 172 c 0 43.9214 0 65.8821 -7.6138 82.0623 a 80 80 0 0 1 -38.3238 38.3238 c -16.1802 7.6138 -38.1409 7.6138 -82.0623 7.6138 L 128 300 c -43.9214 0 -65.8821 0 -82.0623 -7.6138 a 80 80 0 0 1 -38.3238 -38.3238 c -7.6138 -16.1802 -7.6138 -38.1409 -7.6138 -82.0623 L 0 128 c 0 -43.9214 0 -65.8821 7.6138 -82.0623 a 80 80 0 0 1 38.3238 -38.3238 c 16.1802 -7.6138 38.1409 -7.6138 82.0623 -7.6138 Z" fill="none" stroke="#ef4444" stroke-width="2"/>
  </g>
  
  <g transform="translate(348, 72)">
    <text x="0" y="-12" fill="#e2e8f0" font-family="monospace" font-size="12">Superellipse (canvas)</text>
    <text x="0" y="4" fill="#94a3b8" font-family="monospace" font-size="10">tangentY=128.0 · transition=217.9 · peak κ=0.0151</text>
    <path d="M 172 0 C 172.1143 5.9754 172.2282 26.6866 172.6855 35.8526 C 173.1428 45.0187 173.8279 49.2677 174.7436 54.9962 C 175.6593 60.7247 176.8028 65.5569 178.1797 70.2239 C 179.5567 74.8908 181.1615 79.0581 183.0052 82.9977 C 184.8488 86.9374 186.921 90.5163 189.2416 93.8619 C 191.5622 97.2075 194.1125 100.2553 196.9286 103.0714 C 199.7447 105.8875 202.7925 108.4378 206.1381 110.7584 C 209.4837 113.079 213.0626 115.1512 217.0023 116.9948 C 220.9419 118.8385 225.1092 120.4433 229.7761 121.8203 C 234.4431 123.1972 239.2753 124.3407 245.0038 125.2564 C 250.7323 126.1721 254.9813 126.8572 264.1474 127.3145 C 273.3134 127.7718 294.0246 127.8857 300 128 L 300 172 C 294.0246 172.1143 273.3134 172.2282 264.1474 172.6855 C 254.9813 173.1428 250.7323 173.8279 245.0038 174.7436 C 239.2753 175.6593 234.4431 176.8028 229.7761 178.1797 C 225.1092 179.5567 220.9419 181.1615 217.0023 183.0052 C 213.0626 184.8488 209.4837 186.921 206.1381 189.2416 C 202.7925 191.5622 199.7447 194.1125 196.9286 196.9286 C 194.1125 199.7447 191.5622 202.7925 189.2416 206.1381 C 186.921 209.4837 184.8488 213.0626 183.0052 217.0023 C 181.1615 220.9419 179.5567 225.1092 178.1797 229.7761 C 176.8028 234.4431 175.6593 239.2753 174.7436 245.0038 C 173.8279 250.7323 173.1428 254.9813 172.6855 264.1474 C 172.2282 273.3134 172.1143 294.0246 172 300 L 128 300 C 127.8857 294.0246 127.7718 273.3134 127.3145 264.1474 C 126.8572 254.9813 126.1721 250.7323 125.2564 245.0038 C 124.3407 239.2753 123.1972 234.4431 121.8203 229.7761 C 120.4433 225.1092 118.8385 220.9419 116.9948 217.0023 C 115.1512 213.0626 113.079 209.4837 110.7584 206.1381 C 108.4378 202.7925 105.8875 199.7447 103.0714 196.9286 C 100.2553 194.1125 97.2075 191.5622 93.8619 189.2416 C 90.5163 186.921 86.9374 184.8488 82.9977 183.0052 C 79.0581 181.1615 74.8908 179.5567 70.2239 178.1797 C 65.5569 176.8028 60.7247 175.6593 54.9962 174.7436 C 49.2677 173.8279 45.0187 173.1428 35.8526 172.6855 C 26.6866 172.2282 5.9754 172.1143 0 172 L 0 128 C 5.9754 127.8857 26.6866 127.7718 35.8526 127.3145 C 45.0187 126.8572 49.2677 126.1721 54.9962 125.2564 C 60.7247 124.3407 65.5569 123.1972 70.2239 121.8203 C 74.8908 120.4433 79.0581 118.8385 82.9977 116.9948 C 86.9374 115.1512 90.5163 113.079 93.8619 110.7584 C 97.2075 108.4378 100.2553 105.8875 103.0714 103.0714 C 105.8875 100.2553 108.4378 97.2075 110.7584 93.8619 C 113.079 90.5163 115.1512 86.9374 116.9948 82.9977 C 118.8385 79.0581 120.4433 74.8908 121.8203 70.2239 C 123.1972 65.5569 124.3407 60.7247 125.2564 54.9962 C 126.1721 49.2677 126.8572 45.0187 127.3145 35.8526 C 127.7718 26.6866 127.8857 5.9754 128 0 Z" fill="#9e9e9e"/>
    <path d="M 172 0 C 172.1143 5.9754 172.2282 26.6866 172.6855 35.8526 C 173.1428 45.0187 173.8279 49.2677 174.7436 54.9962 C 175.6593 60.7247 176.8028 65.5569 178.1797 70.2239 C 179.5567 74.8908 181.1615 79.0581 183.0052 82.9977 C 184.8488 86.9374 186.921 90.5163 189.2416 93.8619 C 191.5622 97.2075 194.1125 100.2553 196.9286 103.0714 C 199.7447 105.8875 202.7925 108.4378 206.1381 110.7584 C 209.4837 113.079 213.0626 115.1512 217.0023 116.9948 C 220.9419 118.8385 225.1092 120.4433 229.7761 121.8203 C 234.4431 123.1972 239.2753 124.3407 245.0038 125.2564 C 250.7323 126.1721 254.9813 126.8572 264.1474 127.3145 C 273.3134 127.7718 294.0246 127.8857 300 128 L 300 172 C 294.0246 172.1143 273.3134 172.2282 264.1474 172.6855 C 254.9813 173.1428 250.7323 173.8279 245.0038 174.7436 C 239.2753 175.6593 234.4431 176.8028 229.7761 178.1797 C 225.1092 179.5567 220.9419 181.1615 217.0023 183.0052 C 213.0626 184.8488 209.4837 186.921 206.1381 189.2416 C 202.7925 191.5622 199.7447 194.1125 196.9286 196.9286 C 194.1125 199.7447 191.5622 202.7925 189.2416 206.1381 C 186.921 209.4837 184.8488 213.0626 183.0052 217.0023 C 181.1615 220.9419 179.5567 225.1092 178.1797 229.7761 C 176.8028 234.4431 175.6593 239.2753 174.7436 245.0038 C 173.8279 250.7323 173.1428 254.9813 172.6855 264.1474 C 172.2282 273.3134 172.1143 294.0246 172 300 L 128 300 C 127.8857 294.0246 127.7718 273.3134 127.3145 264.1474 C 126.8572 254.9813 126.1721 250.7323 125.2564 245.0038 C 124.3407 239.2753 123.1972 234.4431 121.8203 229.7761 C 120.4433 225.1092 118.8385 220.9419 116.9948 217.0023 C 115.1512 213.0626 113.079 209.4837 110.7584 206.1381 C 108.4378 202.7925 105.8875 199.7447 103.0714 196.9286 C 100.2553 194.1125 97.2075 191.5622 93.8619 189.2416 C 90.5163 186.921 86.9374 184.8488 82.9977 183.0052 C 79.0581 181.1615 74.8908 179.5567 70.2239 178.1797 C 65.5569 176.8028 60.7247 175.6593 54.9962 174.7436 C 49.2677 173.8279 45.0187 173.1428 35.8526 172.6855 C 26.6866 172.2282 5.9754 172.1143 0 172 L 0 128 C 5.9754 127.8857 26.6866 127.7718 35.8526 127.3145 C 45.0187 126.8572 49.2677 126.1721 54.9962 125.2564 C 60.7247 124.3407 65.5569 123.1972 70.2239 121.8203 C 74.8908 120.4433 79.0581 118.8385 82.9977 116.9948 C 86.9374 115.1512 90.5163 113.079 93.8619 110.7584 C 97.2075 108.4378 100.2553 105.8875 103.0714 103.0714 C 105.8875 100.2553 108.4378 97.2075 110.7584 93.8619 C 113.079 90.5163 115.1512 86.9374 116.9948 82.9977 C 118.8385 79.0581 120.4433 74.8908 121.8203 70.2239 C 123.1972 65.5569 124.3407 60.7247 125.2564 54.9962 C 126.1721 49.2677 126.8572 45.0187 127.3145 35.8526 C 127.7718 26.6866 127.8857 5.9754 128 0 Z" fill="none" stroke="#ffffff" stroke-width="20" stroke-linejoin="round"/>
    <path d="M 172 0 C 172.1143 5.9754 172.2282 26.6866 172.6855 35.8526 C 173.1428 45.0187 173.8279 49.2677 174.7436 54.9962 C 175.6593 60.7247 176.8028 65.5569 178.1797 70.2239 C 179.5567 74.8908 181.1615 79.0581 183.0052 82.9977 C 184.8488 86.9374 186.921 90.5163 189.2416 93.8619 C 191.5622 97.2075 194.1125 100.2553 196.9286 103.0714 C 199.7447 105.8875 202.7925 108.4378 206.1381 110.7584 C 209.4837 113.079 213.0626 115.1512 217.0023 116.9948 C 220.9419 118.8385 225.1092 120.4433 229.7761 121.8203 C 234.4431 123.1972 239.2753 124.3407 245.0038 125.2564 C 250.7323 126.1721 254.9813 126.8572 264.1474 127.3145 C 273.3134 127.7718 294.0246 127.8857 300 128 L 300 172 C 294.0246 172.1143 273.3134 172.2282 264.1474 172.6855 C 254.9813 173.1428 250.7323 173.8279 245.0038 174.7436 C 239.2753 175.6593 234.4431 176.8028 229.7761 178.1797 C 225.1092 179.5567 220.9419 181.1615 217.0023 183.0052 C 213.0626 184.8488 209.4837 186.921 206.1381 189.2416 C 202.7925 191.5622 199.7447 194.1125 196.9286 196.9286 C 194.1125 199.7447 191.5622 202.7925 189.2416 206.1381 C 186.921 209.4837 184.8488 213.0626 183.0052 217.0023 C 181.1615 220.9419 179.5567 225.1092 178.1797 229.7761 C 176.8028 234.4431 175.6593 239.2753 174.7436 245.0038 C 173.8279 250.7323 173.1428 254.9813 172.6855 264.1474 C 172.2282 273.3134 172.1143 294.0246 172 300 L 128 300 C 127.8857 294.0246 127.7718 273.3134 127.3145 264.1474 C 126.8572 254.9813 126.1721 250.7323 125.2564 245.0038 C 124.3407 239.2753 123.1972 234.4431 121.8203 229.7761 C 120.4433 225.1092 118.8385 220.9419 116.9948 217.0023 C 115.1512 213.0626 113.079 209.4837 110.7584 206.1381 C 108.4378 202.7925 105.8875 199.7447 103.0714 196.9286 C 100.2553 194.1125 97.2075 191.5622 93.8619 189.2416 C 90.5163 186.921 86.9374 184.8488 82.9977 183.0052 C 79.0581 181.1615 74.8908 179.5567 70.2239 178.1797 C 65.5569 176.8028 60.7247 175.6593 54.9962 174.7436 C 49.2677 173.8279 45.0187 173.1428 35.8526 172.6855 C 26.6866 172.2282 5.9754 172.1143 0 172 L 0 128 C 5.9754 127.8857 26.6866 127.7718 35.8526 127.3145 C 45.0187 126.8572 49.2677 126.1721 54.9962 125.2564 C 60.7247 124.3407 65.5569 123.1972 70.2239 121.8203 C 74.8908 120.4433 79.0581 118.8385 82.9977 116.9948 C 86.9374 115.1512 90.5163 113.079 93.8619 110.7584 C 97.2075 108.4378 100.2553 105.8875 103.0714 103.0714 C 105.8875 100.2553 108.4378 97.2075 110.7584 93.8619 C 113.079 90.5163 115.1512 86.9374 116.9948 82.9977 C 118.8385 79.0581 120.4433 74.8908 121.8203 70.2239 C 123.1972 65.5569 124.3407 60.7247 125.2564 54.9962 C 126.1721 49.2677 126.8572 45.0187 127.3145 35.8526 C 127.7718 26.6866 127.8857 5.9754 128 0 Z" fill="none" stroke="#ef4444" stroke-width="2"/>
  </g>
</svg>