<?xml version="1.0" encoding="UTF-8"?>
<svg xmlns="http://www.w3.org/2000/svg" width="380" height="428" viewBox="0 0 380 428">
  <defs>
    <marker id="arrow" markerWidth="8" markerHeight="8" refX="6" refY="3" orient="auto">
      <path d="M0,0 L0,6 L6,3 z" fill="#22c55e"/>
    </marker>
  </defs>
  <rect width="100%" height="100%" fill="#0f172a"/>
  <g transform="translate(40, 40)">
    <path d="M 172 0 c 44.8042 0 67.2063 0 84.3192 8.7195 a 80 80 0 0 1 34.9613 34.9613 c 8.7195 17.1129 8.7195 39.515 8.7195 84.3192 L 300 172 c 0 44.8042 0 67.2063 -8.7195 84.3192 a 80 80 0 0 1 -34.9613 34.9613 c -17.1129 8.7195 -39.515 8.7195 -84.3192 8.7195 L 128 300 c -44.8042 0 -67.2063 0 -84.3192 -8.7195 a 80 80 0 0 1 -34.9613 -34.9613 c -8.7195 -17.1129 -8.7195 -39.515 -8.7195 -84.3192 L 0 128 c 0 -44.8042 0 -67.2063 8.7195 -84.3192 a 80 80 0 0 1 34.9613 -34.9613 c 17.1129 -8.7195 39.515 -8.7195 84.3192 -8.7195 Z" fill="#64748b" fill-opacity="0.35"/>
    <path d="M 172 0 c 44.8042 0 67.2063 0 84.3192 8.7195 a 80 80 0 0 1 34.9613 34.9613 c 8.7195 17.1129 8.7195 39.515 8.7195 84.3192 L 300 172 c 0 44.8042 0 67.2063 -8.7195 84.3192 a 80 80 0 0 1 -34.9613 34.9613 c -17.1129 8.7195 -39.515 8.7195 -84.3192 8.7195 L 128 300 c -44.8042 0 -67.2063 0 -84.3192 -8.7195 a 80 80 0 0 1 -34.9613 -34.9613 c -8.7195 -17.1129 -8.7195 -39.515 -8.7195 -84.3192 L 0 128 c 0 -44.8042 0 -67.2063 8.7195 -84.3192 a 80 80 0 0 1 34.9613 -34.9613 c 17.1129 -8.7195 39.515 -8.7195 84.3192 -8.7195 Z" fill="none" stroke="red" stroke-width="8" stroke-linejoin="round" stroke-linecap="round"/>
    <line x1="212" y1="40" x2="256.80420000000004" y2="40" stroke="#38bdf8" stroke-width="1" stroke-dasharray="3 2" opacity="0.7"/>
    <line x1="212" y1="40" x2="279.2063" y2="40" stroke="#38bdf8" stroke-width="1" stroke-dasharray="3 2" opacity="0.7"/>
    <line x1="331.2805" y1="83.6808" x2="340" y2="100.7937" stroke="#38bdf8" stroke-width="1" stroke-dasharray="3 2" opacity="0.7"/>
    <line x1="331.2805" y1="83.6808" x2="340" y2="123.1958" stroke="#38bdf8" stroke-width="1" stroke-dasharray="3 2" opacity="0.7"/>
    <line x1="340" y1="212" x2="340" y2="256.80420000000004" stroke="#38bdf8" stroke-width="1" stroke-dasharray="3 2" opacity="0.7"/>
    <line x1="340" y1="212" x2="340" y2="279.2063" stroke="#38bdf8" stroke-width="1" stroke-dasharray="3 2" opacity="0.7"/>
    <line x1="296.3192" y1="331.2805" x2="279.20630000000006" y2="340" stroke="#38bdf8" stroke-width="1" stroke-dasharray="3 2" opacity="0.7"/>
    <line x1="296.3192" y1="331.2805" x2="256.80420000000004" y2="340" stroke="#38bdf8" stroke-width="1" stroke-dasharray="3 2" opacity="0.7"/>
    <line x1="168" y1="340" x2="123.19579999999999" y2="340" stroke="#38bdf8" stroke-width="1" stroke-dasharray="3 2" opacity="0.7"/>
    <line x1="168" y1="340" x2="100.7937" y2="340" stroke="#38bdf8" stroke-width="1" stroke-dasharray="3 2" opacity="0.7"/>
    <line x1="48.719500000000004" y1="296.3192" x2="40" y2="279.20630000000006" stroke="#38bdf8" stroke-width="1" stroke-dasharray="3 2" opacity="0.7"/>
    <line x1="48.719500000000004" y1="296.3192" x2="40" y2="256.80420000000004" stroke="#38bdf8" stroke-width="1" stroke-dasharray="3 2" opacity="0.7"/>
    <line x1="40" y1="168" x2="40" y2="123.19579999999999" stroke="#38bdf8" stroke-width="1" stroke-dasharray="3 2" opacity="0.7"/>
    <line x1="40" y1="168" x2="40" y2="100.7937" stroke="#38bdf8" stroke-width="1" stroke-dasharray="3 2" opacity="0.7"/>
    <line x1="83.6808" y1="48.719500000000004" x2="100.7937" y2="40" stroke="#38bdf8" stroke-width="1" stroke-dasharray="3 2" opacity="0.7"/>
    <line x1="83.6808" y1="48.719500000000004" x2="123.1958" y2="40" stroke="#38bdf8" stroke-width="1" stroke-dasharray="3 2" opacity="0.7"/>
    <circle cx="256.80420000000004" cy="40" r="3" fill="#38bdf8"/>
    <circle cx="279.2063" cy="40" r="3" fill="#38bdf8"/>
    <circle cx="340" cy="100.7937" r="3" fill="#38bdf8"/>
    <circle cx="340" cy="123.1958" r="3" fill="#38bdf8"/>
    <circle cx="340" cy="256.80420000000004" r="3" fill="#38bdf8"/>
    <circle cx="340" cy="279.2063" r="3" fill="#38bdf8"/>
    <circle cx="279.20630000000006" cy="340" r="3" fill="#38bdf8"/>
    <circle cx="256.80420000000004" cy="340" r="3" fill="#38bdf8"/>
    <circle cx="123.19579999999999" cy="340" r="3" fill="#38bdf8"/>
    <circle cx="100.7937" cy="340" r="3" fill="#38bdf8"/>
    <circle cx="40" cy="279.20630000000006" r="3" fill="#38bdf8"/>
    <circle cx="40" cy="256.80420000000004" r="3" fill="#38bdf8"/>
    <circle cx="40" cy="123.19579999999999" r="3" fill="#38bdf8"/>
    <circle cx="40" cy="100.7937" r="3" fill="#38bdf8"/>
    <circle cx="100.7937" cy="40" r="3" fill="#38bdf8"/>
    <circle cx="123.1958" cy="40" r="3" fill="#38bdf8"/>
    <circle cx="212" cy="40" r="4" fill="#fbbf24" stroke="#0f172a" stroke-width="1"/>
    <circle cx="296.3192" cy="48.7195" r="4" fill="#fbbf24" stroke="#0f172a" stroke-width="1"/>
    <circle cx="331.2805" cy="83.6808" r="4" fill="#fbbf24" stroke="#0f172a" stroke-width="1"/>
    <circle cx="340" cy="168" r="4" fill="#fbbf24" stroke="#0f172a" stroke-width="1"/>
    <circle cx="340" cy="212" r="4" fill="#fbbf24" stroke="#0f172a" stroke-width="1"/>
    <circle cx="331.2805" cy="296.3192" r="4" fill="#fbbf24" stroke="#0f172a" stroke-width="1"/>
    <circle cx="296.3192" cy="331.2805" r="4" fill="#fbbf24" stroke="#0f172a" stroke-width="1"/>
    <circle cx="212.00000000000003" cy="340" r="4" fill="#fbbf24" stroke="#0f172a" stroke-width="1"/>
    <circle cx="168" cy="340" r="4" fill="#fbbf24" stroke="#0f172a" stroke-width="1"/>
    <circle cx="83.6808" cy="331.2805" r="4" fill="#fbbf24" stroke="#0f172a" stroke-width="1"/>
    <circle cx="48.719500000000004" cy="296.3192" r="4" fill="#fbbf24" stroke="#0f172a" stroke-width="1"/>
    <circle cx="40" cy="212.00000000000003" r="4" fill="#fbbf24" stroke="#0f172a" stroke-width="1"/>
    <circle cx="40" cy="168" r="4" fill="#fbbf24" stroke="#0f172a" stroke-width="1"/>
    <circle cx="48.7195" cy="83.6808" r="4" fill="#fbbf24" stroke="#0f172a" stroke-width="1"/>
    <circle cx="83.6808" cy="48.719500000000004" r="4" fill="#fbbf24" stroke="#0f172a" stroke-width="1"/>
    <circle cx="168" cy="40" r="4" fill="#fbbf24" stroke="#0f172a" stroke-width="1"/>
    <text x="172" y="34" fill="#94a3b8" font-size="10" font-family="monospace">M</text>
    <text x="216.8042" y="34" fill="#94a3b8" font-size="10" font-family="monospace">c</text>
    <text x="291.2805" y="77.6808" fill="#94a3b8" font-size="10" font-family="monospace">a</text>
    <text x="300" y="94.7937" fill="#94a3b8" font-size="10" font-family="monospace">c</text>
    <text x="344" y="208" fill="#94a3b8" font-size="10" font-family="monospace">L</text>
    <text x="300" y="250.80420000000004" fill="#94a3b8" font-size="10" font-family="monospace">c</text>
    <text x="256.3192" y="325.2805" fill="#94a3b8" font-size="10" font-family="monospace">a</text>
    <text x="239.20630000000003" y="334" fill="#94a3b8" font-size="10" font-family="monospace">c</text>
    <text x="172" y="336" fill="#94a3b8" font-size="10" font-family="monospace">L</text>
    <text x="83.19579999999999" y="334" fill="#94a3b8" font-size="10" font-family="monospace">c</text>
    <text x="8.719500000000004" y="290.3192" fill="#94a3b8" font-size="10" font-family="monospace">a</text>
    <text x="3.552713678800501e-15" y="273.20630000000006" fill="#94a3b8" font-size="10" font-family="monospace">c</text>
    <text x="44" y="164" fill="#94a3b8" font-size="10" font-family="monospace">L</text>
    <text x="0" y="117.19579999999999" fill="#94a3b8" font-size="10" font-family="monospace">c</text>
    <text x="43.680800000000005" y="42.719500000000004" fill="#94a3b8" font-size="10" font-family="monospace">a</text>
    <text x="60.7937" y="34" fill="#94a3b8" font-size="10" font-family="monospace">c</text>
    <line x1="248.191426233287" y1="43.742577503595214" x2="254.1596" y2="44.35975" stroke="#22c55e" stroke-width="1.5" marker-end="url(#arrow)"/>
    <line x1="309.55720931288073" y1="61.957509312880724" x2="313.79985" y2="66.20015000000001" stroke="#22c55e" stroke-width="1.5" marker-end="url(#arrow)"/>
    <line x1="335.02307750359523" y1="119.87222623328698" x2="335.64025000000004" y2="125.8404" stroke="#22c55e" stroke-width="1.5" marker-end="url(#arrow)"/>
    <line x1="340" y1="184" x2="340" y2="190" stroke="#22c55e" stroke-width="1.5" marker-end="url(#arrow)"/>
    <line x1="336.25742249640484" y1="248.191426233287" x2="335.64025000000004" y2="254.1596" stroke="#22c55e" stroke-width="1.5" marker-end="url(#arrow)"/>
    <line x1="318.04249068711925" y1="309.55720931288073" x2="313.79985" y2="313.79985" stroke="#22c55e" stroke-width="1.5" marker-end="url(#arrow)"/>
    <line x1="260.127773766713" y1="335.02307750359523" x2="254.1596" y2="335.64025000000004" stroke="#22c55e" stroke-width="1.5" marker-end="url(#arrow)"/>
    <line x1="196" y1="340" x2="190" y2="340" stroke="#22c55e" stroke-width="1.5" marker-end="url(#arrow)"/>
    <line x1="131.808573766713" y1="336.25742249640484" x2="125.8404" y2="335.64025000000004" stroke="#22c55e" stroke-width="1.5" marker-end="url(#arrow)"/>
    <line x1="70.4427906871193" y1="318.04249068711925" x2="66.20015000000001" y2="313.79985" stroke="#22c55e" stroke-width="1.5" marker-end="url(#arrow)"/>
    <line x1="44.97692249640479" y1="260.127773766713" x2="44.359750000000005" y2="254.1596" stroke="#22c55e" stroke-width="1.5" marker-end="url(#arrow)"/>
    <line x1="40" y1="196" x2="40" y2="190" stroke="#22c55e" stroke-width="1.5" marker-end="url(#arrow)"/>
    <line x1="43.742577503595214" y1="131.808573766713" x2="44.35975" y2="125.8404" stroke="#22c55e" stroke-width="1.5" marker-end="url(#arrow)"/>
    <line x1="61.957509312880724" y1="70.4427906871193" x2="66.20015000000001" y2="66.20015000000001" stroke="#22c55e" stroke-width="1.5" marker-end="url(#arrow)"/>
    <line x1="119.87222623328698" y1="44.97692249640479" x2="125.8404" y2="44.359750000000005" stroke="#22c55e" stroke-width="1.5" marker-end="url(#arrow)"/>
  </g>
  <text x="12" y="20" fill="#e2e8f0" font-family="monospace" font-size="12">smoothing=0.6 · closed=true · perimeter=M→C→A→C→L→C→A→C→L→C→A→C→L→C→A→C→Z</text>
  <text x="12" y="36" fill="#94a3b8" font-family="monospace" font-size="10">yellow=anchors · blue=controls · green=segment direction · red=stroke perimeter</text>
  <foreignObject x="12" y="384" width="356" height="36">
    <div xmlns="http://www.w3.org/1999/xhtml" style="color:#64748b;font:10px/1.3 monospace;word-break:break-all">M 172 0 c 44.8042 0 67.2063 0 84.3192 8.7195 a 80 80 0 0 1 34.9613 34.9613 c 8.7195 17.1129 8.7195 39.515 8.7195 84.3192 L 300 172 c 0 44.8042 0 67.2063 -8.7195 84.3192 a 80 80 0 0 1 -34.9613 34.9613 c -17.1129 8.7195 -39.515 8.7195 -84.3192 8.7195 L 128 300 c -44.8042 0 -67.2063 0 -84.3192 -8.7195 a 80 80 0 0 1 -34.9613 -34.9613 c -8.7195 -17.1129 -8.7195 -39.515 -8.7195 -84.3192 L 0 128 c 0 -44.8042 0 -67.2063 8.7195 -84.3192 a 80 80 0 0 1 34.9613 -34.9613 c 17.1129 -8.7195 39.515 -8.7195 84.3192 -8.7195 Z</div>
  </foreignObject>
</svg>